<mxfile host="app.diagrams.net" agent="Mozilla/5.0 (Windows NT 10.0; Win64; x64) AppleWebKit/537.36 (KHTML, like Gecko) Chrome/130.0.0.0 Safari/537.36" version="24.8.4">
  <diagram name="Page-1" id="tsjMCRkrJhnyo7VkmUJD">
    <mxGraphModel dx="1720" dy="1796" grid="1" gridSize="10" guides="1" tooltips="1" connect="1" arrows="1" fold="1" page="1" pageScale="1" pageWidth="850" pageHeight="1100" math="0" shadow="0">
      <root>
        <mxCell id="0" />
        <mxCell id="1" parent="0" />
        <mxCell id="eWbxP_99swZ47GVYCq64-2" value="&lt;b&gt;Google &lt;/b&gt;Cloud Platform" style="fillColor=#F6F6F6;strokeColor=none;shadow=0;gradientColor=none;fontSize=14;align=left;spacing=10;fontColor=#717171;9E9E9E;verticalAlign=top;spacingTop=-4;fontStyle=0;spacingLeft=40;html=1;whiteSpace=wrap;" vertex="1" parent="1">
          <mxGeometry x="80" y="70" width="720" height="540" as="geometry" />
        </mxCell>
        <mxCell id="eWbxP_99swZ47GVYCq64-3" value="" style="shape=mxgraph.gcp2.google_cloud_platform;fillColor=#F6F6F6;strokeColor=none;shadow=0;gradientColor=none;" vertex="1" parent="eWbxP_99swZ47GVYCq64-2">
          <mxGeometry width="23" height="20" relative="1" as="geometry">
            <mxPoint x="20" y="10" as="offset" />
          </mxGeometry>
        </mxCell>
        <mxCell id="eWbxP_99swZ47GVYCq64-15" value="us-west-1" style="sketch=0;points=[[0,0,0],[0.25,0,0],[0.5,0,0],[0.75,0,0],[1,0,0],[1,0.25,0],[1,0.5,0],[1,0.75,0],[1,1,0],[0.75,1,0],[0.5,1,0],[0.25,1,0],[0,1,0],[0,0.75,0],[0,0.5,0],[0,0.25,0]];rounded=1;absoluteArcSize=1;arcSize=2;html=1;strokeColor=none;gradientColor=none;shadow=0;dashed=0;fontSize=12;fontColor=#9E9E9E;align=left;verticalAlign=top;spacing=10;spacingTop=-4;whiteSpace=wrap;fillColor=#F3E5F5;" vertex="1" parent="eWbxP_99swZ47GVYCq64-2">
          <mxGeometry x="23.130000000000003" y="110.2" width="236.87" height="389.8" as="geometry" />
        </mxCell>
        <mxCell id="eWbxP_99swZ47GVYCq64-16" value="us-east-1" style="sketch=0;points=[[0,0,0],[0.25,0,0],[0.5,0,0],[0.75,0,0],[1,0,0],[1,0.25,0],[1,0.5,0],[1,0.75,0],[1,1,0],[0.75,1,0],[0.5,1,0],[0.25,1,0],[0,1,0],[0,0.75,0],[0,0.5,0],[0,0.25,0]];rounded=1;absoluteArcSize=1;arcSize=2;html=1;strokeColor=none;gradientColor=none;shadow=0;dashed=0;fontSize=12;fontColor=#9E9E9E;align=left;verticalAlign=top;spacing=10;spacingTop=-4;whiteSpace=wrap;fillColor=#F3E5F5;" vertex="1" parent="eWbxP_99swZ47GVYCq64-2">
          <mxGeometry x="440" y="110.2" width="236.87" height="389.8" as="geometry" />
        </mxCell>
        <mxCell id="eWbxP_99swZ47GVYCq64-17" value="Dual-region" style="sketch=0;points=[[0,0,0],[0.25,0,0],[0.5,0,0],[0.75,0,0],[1,0,0],[1,0.25,0],[1,0.5,0],[1,0.75,0],[1,1,0],[0.75,1,0],[0.5,1,0],[0.25,1,0],[0,1,0],[0,0.75,0],[0,0.5,0],[0,0.25,0]];rounded=1;absoluteArcSize=1;arcSize=2;html=1;strokeColor=none;gradientColor=none;shadow=0;dashed=0;fontSize=12;fontColor=#9E9E9E;align=left;verticalAlign=top;spacing=10;spacingTop=-4;whiteSpace=wrap;fillColor=#E1F5FE;" vertex="1" parent="eWbxP_99swZ47GVYCq64-2">
          <mxGeometry x="80" y="370" width="550" height="110" as="geometry" />
        </mxCell>
        <mxCell id="eWbxP_99swZ47GVYCq64-18" value="" style="strokeColor=#dddddd;shadow=1;strokeWidth=1;rounded=1;absoluteArcSize=1;arcSize=2;" vertex="1" parent="eWbxP_99swZ47GVYCq64-2">
          <mxGeometry x="130" y="410" width="120" height="60" as="geometry" />
        </mxCell>
        <mxCell id="eWbxP_99swZ47GVYCq64-19" value="Cloud&#xa;Storage" style="editableCssRules=.*;html=1;fontColor=#999999;shape=image;verticalLabelPosition=middle;verticalAlign=middle;labelPosition=right;align=left;spacingLeft=20;part=1;points=[];imageAspect=0;image=data:image/svg+xml,PHN2ZyB4bWxucz0iaHR0cDovL3d3dy53My5vcmcvMjAwMC9zdmciIHhtbG5zOnY9Imh0dHBzOi8vdmVjdGEuaW8vbmFubyIgd2lkdGg9IjIwIiBoZWlnaHQ9IjE2IiB2aWV3Qm94PSIwIDAgMjAgMTYiPiYjeGE7CTxzdHlsZSB0eXBlPSJ0ZXh0L2NzcyI+JiN4YTsJLnN0MHtmaWxsOiM0Mjg1ZjQ7fSYjeGE7CS5zdDF7ZmlsbDojNjY5ZGY2O30mI3hhOwkuc3Qye2ZpbGw6I2FlY2JmYTt9JiN4YTsJLnN0M3tmaWxsOiNmZmY7fSYjeGE7CTwvc3R5bGU+JiN4YTsJPHBhdGggY2xhc3M9InN0MiIgZD0iTTAgMGgyMHY3SDB6Ii8+JiN4YTsJPHBhdGggY2xhc3M9InN0MSIgZD0iTTE4IDBoMnY3aC0yeiIvPiYjeGE7CTxwYXRoIGNsYXNzPSJzdDAiIGQ9Ik0xOCA3bDItN2gtMnoiLz4mI3hhOwk8cGF0aCBjbGFzcz0ic3QxIiBkPSJNMCAwaDJ2N0gweiIvPiYjeGE7CTxnIGNsYXNzPSJzdDMiPiYjeGE7CQk8cGF0aCBkPSJNNCAzaDZ2MUg0eiIvPiYjeGE7CQk8cmVjdCB4PSIxMyIgeT0iMiIgd2lkdGg9IjMiIGhlaWdodD0iMyIgcng9IjEuNSIvPiYjeGE7CTwvZz4mI3hhOwk8cGF0aCBjbGFzcz0ic3QyIiBkPSJNMCA5aDIwdjdIMHoiLz4mI3hhOwk8cGF0aCBjbGFzcz0ic3QxIiBkPSJNMTggOWgydjdoLTJ6Ii8+JiN4YTsJPHBhdGggY2xhc3M9InN0MCIgZD0iTTE4IDE2bDItN2gtMnoiLz4mI3hhOwk8cGF0aCBjbGFzcz0ic3QxIiBkPSJNMCA5aDJ2N0gweiIvPiYjeGE7CTxnIGNsYXNzPSJzdDMiPiYjeGE7CQk8cGF0aCBkPSJNNCAxMmg2djFINHoiLz4mI3hhOwkJPHJlY3QgeD0iMTMiIHk9IjExIiB3aWR0aD0iMyIgaGVpZ2h0PSIzIiByeD0iMS41Ii8+JiN4YTsJPC9nPiYjeGE7PC9zdmc+;" vertex="1" parent="eWbxP_99swZ47GVYCq64-18">
          <mxGeometry width="30" height="24" relative="1" as="geometry">
            <mxPoint x="15" y="18" as="offset" />
          </mxGeometry>
        </mxCell>
        <mxCell id="eWbxP_99swZ47GVYCq64-21" value="" style="strokeColor=#dddddd;shadow=1;strokeWidth=1;rounded=1;absoluteArcSize=1;arcSize=2;" vertex="1" parent="eWbxP_99swZ47GVYCq64-2">
          <mxGeometry x="470" y="410" width="120" height="60" as="geometry" />
        </mxCell>
        <mxCell id="eWbxP_99swZ47GVYCq64-22" value="Cloud&#xa;Storage" style="editableCssRules=.*;html=1;fontColor=#999999;shape=image;verticalLabelPosition=middle;verticalAlign=middle;labelPosition=right;align=left;spacingLeft=20;part=1;points=[];imageAspect=0;image=data:image/svg+xml,PHN2ZyB4bWxucz0iaHR0cDovL3d3dy53My5vcmcvMjAwMC9zdmciIHhtbG5zOnY9Imh0dHBzOi8vdmVjdGEuaW8vbmFubyIgd2lkdGg9IjIwIiBoZWlnaHQ9IjE2IiB2aWV3Qm94PSIwIDAgMjAgMTYiPiYjeGE7CTxzdHlsZSB0eXBlPSJ0ZXh0L2NzcyI+JiN4YTsJLnN0MHtmaWxsOiM0Mjg1ZjQ7fSYjeGE7CS5zdDF7ZmlsbDojNjY5ZGY2O30mI3hhOwkuc3Qye2ZpbGw6I2FlY2JmYTt9JiN4YTsJLnN0M3tmaWxsOiNmZmY7fSYjeGE7CTwvc3R5bGU+JiN4YTsJPHBhdGggY2xhc3M9InN0MiIgZD0iTTAgMGgyMHY3SDB6Ii8+JiN4YTsJPHBhdGggY2xhc3M9InN0MSIgZD0iTTE4IDBoMnY3aC0yeiIvPiYjeGE7CTxwYXRoIGNsYXNzPSJzdDAiIGQ9Ik0xOCA3bDItN2gtMnoiLz4mI3hhOwk8cGF0aCBjbGFzcz0ic3QxIiBkPSJNMCAwaDJ2N0gweiIvPiYjeGE7CTxnIGNsYXNzPSJzdDMiPiYjeGE7CQk8cGF0aCBkPSJNNCAzaDZ2MUg0eiIvPiYjeGE7CQk8cmVjdCB4PSIxMyIgeT0iMiIgd2lkdGg9IjMiIGhlaWdodD0iMyIgcng9IjEuNSIvPiYjeGE7CTwvZz4mI3hhOwk8cGF0aCBjbGFzcz0ic3QyIiBkPSJNMCA5aDIwdjdIMHoiLz4mI3hhOwk8cGF0aCBjbGFzcz0ic3QxIiBkPSJNMTggOWgydjdoLTJ6Ii8+JiN4YTsJPHBhdGggY2xhc3M9InN0MCIgZD0iTTE4IDE2bDItN2gtMnoiLz4mI3hhOwk8cGF0aCBjbGFzcz0ic3QxIiBkPSJNMCA5aDJ2N0gweiIvPiYjeGE7CTxnIGNsYXNzPSJzdDMiPiYjeGE7CQk8cGF0aCBkPSJNNCAxMmg2djFINHoiLz4mI3hhOwkJPHJlY3QgeD0iMTMiIHk9IjExIiB3aWR0aD0iMyIgaGVpZ2h0PSIzIiByeD0iMS41Ii8+JiN4YTsJPC9nPiYjeGE7PC9zdmc+;" vertex="1" parent="eWbxP_99swZ47GVYCq64-21">
          <mxGeometry width="30" height="24" relative="1" as="geometry">
            <mxPoint x="15" y="18" as="offset" />
          </mxGeometry>
        </mxCell>
        <mxCell id="eWbxP_99swZ47GVYCq64-23" value="" style="endArrow=classic;html=1;rounded=0;exitX=1;exitY=0.5;exitDx=0;exitDy=0;entryX=0;entryY=0.5;entryDx=0;entryDy=0;" edge="1" parent="eWbxP_99swZ47GVYCq64-2" source="eWbxP_99swZ47GVYCq64-18" target="eWbxP_99swZ47GVYCq64-21">
          <mxGeometry width="50" height="50" relative="1" as="geometry">
            <mxPoint x="300" y="310" as="sourcePoint" />
            <mxPoint x="350" y="260" as="targetPoint" />
          </mxGeometry>
        </mxCell>
        <mxCell id="eWbxP_99swZ47GVYCq64-24" value="Replication" style="text;html=1;align=center;verticalAlign=middle;whiteSpace=wrap;rounded=0;" vertex="1" parent="eWbxP_99swZ47GVYCq64-2">
          <mxGeometry x="315" y="410" width="60" height="30" as="geometry" />
        </mxCell>
        <mxCell id="eWbxP_99swZ47GVYCq64-25" value="" style="strokeColor=#dddddd;shadow=1;strokeWidth=1;rounded=1;absoluteArcSize=1;arcSize=2;" vertex="1" parent="eWbxP_99swZ47GVYCq64-2">
          <mxGeometry x="290" y="20" width="130" height="44" as="geometry" />
        </mxCell>
        <mxCell id="eWbxP_99swZ47GVYCq64-26" value="HTTPS&#xa;Load Balancer" style="sketch=0;dashed=0;connectable=0;html=1;fillColor=#757575;strokeColor=none;shape=mxgraph.gcp2.network_load_balancer;part=1;labelPosition=right;verticalLabelPosition=middle;align=left;verticalAlign=middle;spacingLeft=5;fontSize=12;" vertex="1" parent="eWbxP_99swZ47GVYCq64-25">
          <mxGeometry y="0.5" width="32" height="32" relative="1" as="geometry">
            <mxPoint x="5" y="-16" as="offset" />
          </mxGeometry>
        </mxCell>
        <mxCell id="eWbxP_99swZ47GVYCq64-28" value="Global external application load balancer" style="text;whiteSpace=wrap;" vertex="1" parent="eWbxP_99swZ47GVYCq64-2">
          <mxGeometry x="240" y="70" width="250" height="30" as="geometry" />
        </mxCell>
        <mxCell id="eWbxP_99swZ47GVYCq64-29" value="" style="strokeColor=#dddddd;shadow=1;strokeWidth=1;rounded=1;absoluteArcSize=1;arcSize=2;" vertex="1" parent="eWbxP_99swZ47GVYCq64-2">
          <mxGeometry x="81.57" y="150" width="128.43" height="50" as="geometry" />
        </mxCell>
        <mxCell id="eWbxP_99swZ47GVYCq64-30" value="App&#xa;Engine" style="editableCssRules=.*;html=1;fontColor=#999999;shape=image;verticalLabelPosition=middle;verticalAlign=middle;labelPosition=right;align=left;spacingLeft=20;part=1;points=[];imageAspect=0;image=data:image/svg+xml,PHN2ZyB4bWxucz0iaHR0cDovL3d3dy53My5vcmcvMjAwMC9zdmciIHhtbG5zOnY9Imh0dHBzOi8vdmVjdGEuaW8vbmFubyIgd2lkdGg9IjIwIiBoZWlnaHQ9IjE2LjAyMDAwMDQ1Nzc2MzY3MiIgZmlsbC1ydWxlPSJldmVub2RkIiB2aWV3Qm94PSI4Ljk0MDY5NjcxNjMwODU5NGUtOCAwIDIwIDE2LjAyMDAwMDQ1Nzc2MzY3MiI+JiN4YTsJPHN0eWxlIHR5cGU9InRleHQvY3NzIj4mI3hhOwkuc3Qwe2ZpbGw6IzQyODVmNDt9JiN4YTsJLnN0MXtmaWxsOiNhZWNiZmE7fSYjeGE7CS5zdDJ7ZmlsbDojNjY5ZGY2O30mI3hhOwk8L3N0eWxlPiYjeGE7CTxwYXRoIGNsYXNzPSJzdDAiIGQ9Ik0xMi4zIDcuMjZsLTEuMjIgMS4yMkExLjcxIDEuNzEgMCAwIDEgMTAgMTEuNDlhMS43NCAxLjc0IDAgMCAxLTEuMzMtLjY0bC0xLjIyIDEuMjJhMy40MyAzLjQzIDAgMCAwIDUuOTg0LTEuMzgxQTMuNDMgMy40MyAwIDAgMCAxMi4zIDcuMjZ6Ii8+JiN4YTsJPHBhdGggY2xhc3M9InN0MSIgZD0iTTEwIDMuNTJhNi4yNSA2LjI1IDAgMCAwIDAgMTIuNSA2LjI1IDYuMjUgMCAwIDAgMC0xMi41bTAgMTAuNzRhNC40NSA0LjQ1IDAgMCAxLTMuMTU3LTcuNTk3QTQuNDUgNC40NSAwIDAgMSAxNC40NCA5LjgyIDQuNDQgNC40NCAwIDAgMSAxMCAxNC4yNiIvPiYjeGE7CTxwYXRoIGNsYXNzPSJzdDIiIGQ9Ik0xOS42MiA5LjE2bC0yLjU2LS44MWE3LjEgNy4xIDAgMCAxIC4xNyAxLjUzIDcuNjIgNy42MiAwIDAgMS0uMDggMS4wOGgyLjQ3YS40NC40NCAwIDAgMCAuMzgtLjQydi0xYS40NC40NCAwIDAgMC0uMzgtLjQyTTEwIDIuNzhhNy40OCA3LjQ4IDAgMCAxIDEuNS4xNUwxMC41OC4zOGMtLjA3LS4yMi0uMjEtLjM4LS40Mi0uMzhoLS4zOGEuNDUuNDUgMCAwIDAtLjQyLjM4bC0uOCAyLjU0QTcuNjQgNy42NCAwIDAgMSAxMCAyLjc4bS03LjIzIDcuMWE3LjEgNy4xIDAgMCAxIC4xNy0xLjUzbC0yLjU2LjgxYS40NC40NCAwIDAgMC0uMzguNDJ2MWEuNDQuNDQgMCAwIDAgLjM4LjQyaDIuNDdhNy42MiA3LjYyIDAgMCAxLS4wOC0xLjA4Ii8+JiN4YTsJPHBhdGggY2xhc3M9InN0MSIgZD0iTTEwIDcuMjZhMi41IDIuNSAwIDEgMCAwIDUgMi41IDIuNSAwIDEgMCAwLTV6bTAgMy43NWExLjI1IDEuMjUgMCAxIDEgMC0yLjUgMS4yNSAxLjI1IDAgMCAxIDEuMjUgMS4yNUExLjI1IDEuMjUgMCAwIDEgMTAgMTEuMDJ6Ii8+JiN4YTs8L3N2Zz4=;" vertex="1" parent="eWbxP_99swZ47GVYCq64-29">
          <mxGeometry width="30" height="24" relative="1" as="geometry">
            <mxPoint x="15" y="18" as="offset" />
          </mxGeometry>
        </mxCell>
        <mxCell id="eWbxP_99swZ47GVYCq64-45" value="" style="endArrow=classic;html=1;rounded=0;exitX=0;exitY=0.5;exitDx=0;exitDy=0;" edge="1" parent="eWbxP_99swZ47GVYCq64-29" source="eWbxP_99swZ47GVYCq64-25">
          <mxGeometry width="50" height="50" relative="1" as="geometry">
            <mxPoint x="18.430000000000007" y="50" as="sourcePoint" />
            <mxPoint x="68.43" as="targetPoint" />
            <Array as="points">
              <mxPoint x="68.43" y="-108" />
            </Array>
          </mxGeometry>
        </mxCell>
        <mxCell id="eWbxP_99swZ47GVYCq64-31" value="" style="strokeColor=#dddddd;shadow=1;strokeWidth=1;rounded=1;absoluteArcSize=1;arcSize=2;" vertex="1" parent="eWbxP_99swZ47GVYCq64-2">
          <mxGeometry x="500" y="150" width="130" height="50" as="geometry" />
        </mxCell>
        <mxCell id="eWbxP_99swZ47GVYCq64-32" value="App&#xa;Engine" style="editableCssRules=.*;html=1;fontColor=#999999;shape=image;verticalLabelPosition=middle;verticalAlign=middle;labelPosition=right;align=left;spacingLeft=20;part=1;points=[];imageAspect=0;image=data:image/svg+xml,PHN2ZyB4bWxucz0iaHR0cDovL3d3dy53My5vcmcvMjAwMC9zdmciIHhtbG5zOnY9Imh0dHBzOi8vdmVjdGEuaW8vbmFubyIgd2lkdGg9IjIwIiBoZWlnaHQ9IjE2LjAyMDAwMDQ1Nzc2MzY3MiIgZmlsbC1ydWxlPSJldmVub2RkIiB2aWV3Qm94PSI4Ljk0MDY5NjcxNjMwODU5NGUtOCAwIDIwIDE2LjAyMDAwMDQ1Nzc2MzY3MiI+JiN4YTsJPHN0eWxlIHR5cGU9InRleHQvY3NzIj4mI3hhOwkuc3Qwe2ZpbGw6IzQyODVmNDt9JiN4YTsJLnN0MXtmaWxsOiNhZWNiZmE7fSYjeGE7CS5zdDJ7ZmlsbDojNjY5ZGY2O30mI3hhOwk8L3N0eWxlPiYjeGE7CTxwYXRoIGNsYXNzPSJzdDAiIGQ9Ik0xMi4zIDcuMjZsLTEuMjIgMS4yMkExLjcxIDEuNzEgMCAwIDEgMTAgMTEuNDlhMS43NCAxLjc0IDAgMCAxLTEuMzMtLjY0bC0xLjIyIDEuMjJhMy40MyAzLjQzIDAgMCAwIDUuOTg0LTEuMzgxQTMuNDMgMy40MyAwIDAgMCAxMi4zIDcuMjZ6Ii8+JiN4YTsJPHBhdGggY2xhc3M9InN0MSIgZD0iTTEwIDMuNTJhNi4yNSA2LjI1IDAgMCAwIDAgMTIuNSA2LjI1IDYuMjUgMCAwIDAgMC0xMi41bTAgMTAuNzRhNC40NSA0LjQ1IDAgMCAxLTMuMTU3LTcuNTk3QTQuNDUgNC40NSAwIDAgMSAxNC40NCA5LjgyIDQuNDQgNC40NCAwIDAgMSAxMCAxNC4yNiIvPiYjeGE7CTxwYXRoIGNsYXNzPSJzdDIiIGQ9Ik0xOS42MiA5LjE2bC0yLjU2LS44MWE3LjEgNy4xIDAgMCAxIC4xNyAxLjUzIDcuNjIgNy42MiAwIDAgMS0uMDggMS4wOGgyLjQ3YS40NC40NCAwIDAgMCAuMzgtLjQydi0xYS40NC40NCAwIDAgMC0uMzgtLjQyTTEwIDIuNzhhNy40OCA3LjQ4IDAgMCAxIDEuNS4xNUwxMC41OC4zOGMtLjA3LS4yMi0uMjEtLjM4LS40Mi0uMzhoLS4zOGEuNDUuNDUgMCAwIDAtLjQyLjM4bC0uOCAyLjU0QTcuNjQgNy42NCAwIDAgMSAxMCAyLjc4bS03LjIzIDcuMWE3LjEgNy4xIDAgMCAxIC4xNy0xLjUzbC0yLjU2LjgxYS40NC40NCAwIDAgMC0uMzguNDJ2MWEuNDQuNDQgMCAwIDAgLjM4LjQyaDIuNDdhNy42MiA3LjYyIDAgMCAxLS4wOC0xLjA4Ii8+JiN4YTsJPHBhdGggY2xhc3M9InN0MSIgZD0iTTEwIDcuMjZhMi41IDIuNSAwIDEgMCAwIDUgMi41IDIuNSAwIDEgMCAwLTV6bTAgMy43NWExLjI1IDEuMjUgMCAxIDEgMC0yLjUgMS4yNSAxLjI1IDAgMCAxIDEuMjUgMS4yNUExLjI1IDEuMjUgMCAwIDEgMTAgMTEuMDJ6Ii8+JiN4YTs8L3N2Zz4=;" vertex="1" parent="eWbxP_99swZ47GVYCq64-31">
          <mxGeometry width="30" height="24" relative="1" as="geometry">
            <mxPoint x="15" y="18" as="offset" />
          </mxGeometry>
        </mxCell>
        <mxCell id="eWbxP_99swZ47GVYCq64-33" value="" style="strokeColor=#dddddd;shadow=1;strokeWidth=1;rounded=1;absoluteArcSize=1;arcSize=2;" vertex="1" parent="eWbxP_99swZ47GVYCq64-2">
          <mxGeometry x="81.57" y="260" width="130" height="50" as="geometry" />
        </mxCell>
        <mxCell id="eWbxP_99swZ47GVYCq64-34" value="Compute&#xa;Engine" style="editableCssRules=.*;html=1;fontColor=#999999;shape=image;verticalLabelPosition=middle;verticalAlign=middle;labelPosition=right;align=left;spacingLeft=20;part=1;points=[];imageAspect=0;image=data:image/svg+xml,PHN2ZyB4bWxucz0iaHR0cDovL3d3dy53My5vcmcvMjAwMC9zdmciIHhtbG5zOnY9Imh0dHBzOi8vdmVjdGEuaW8vbmFubyIgd2lkdGg9IjIwIiBoZWlnaHQ9IjIwIiB2aWV3Qm94PSIwIDAgMjAgMjAiPiYjeGE7CTxzdHlsZSB0eXBlPSJ0ZXh0L2NzcyI+JiN4YTsJLnN0MHtmaWxsOiM0Mjg1ZjQ7fSYjeGE7CS5zdDF7ZmlsbDojNjY5ZGY2O30mI3hhOwkuc3Qye2ZpbGw6I2FlY2JmYTt9JiN4YTsJPC9zdHlsZT4mI3hhOwk8cGF0aCBjbGFzcz0ic3QyIiBkPSJNNyA3aDZ2Nkg3eiIvPiYjeGE7CTxwYXRoIGNsYXNzPSJzdDEiIGQ9Ik05IDBoMnY0SDl6TTUgMGgydjRINXptOCAwaDJ2NGgtMnoiLz4mI3hhOwk8cGF0aCBjbGFzcz0ic3QwIiBkPSJNOSAxNmgydjRIOXptLTQgMGgydjRINXptOCAwaDJ2NGgtMnptMy01VjloNHYyem0wIDR2LTJoNHYyem0wLThWNWg0djJ6Ii8+JiN4YTsJPHBhdGggY2xhc3M9InN0MSIgZD0iTTAgMTFWOWg0djJ6bTAgNHYtMmg0djJ6bTAtOFY1aDR2MnoiLz4mI3hhOwk8cGF0aCBjbGFzcz0ic3QyIiBkPSJNMyAzdjE0aDE0VjN6bTEyIDEySDVWNWgxMHoiLz4mI3hhOwk8cGF0aCBjbGFzcz0ic3QxIiBkPSJNMTAgMTBsLTMgM2g2eiIvPiYjeGE7CTxwYXRoIGNsYXNzPSJzdDAiIGQ9Ik0xMyA3bC0zIDMgMyAzeiIvPiYjeGE7PC9zdmc+;" vertex="1" parent="eWbxP_99swZ47GVYCq64-33">
          <mxGeometry width="30" height="30" relative="1" as="geometry">
            <mxPoint x="15" y="15" as="offset" />
          </mxGeometry>
        </mxCell>
        <mxCell id="eWbxP_99swZ47GVYCq64-35" value="" style="strokeColor=#dddddd;shadow=1;strokeWidth=1;rounded=1;absoluteArcSize=1;arcSize=2;" vertex="1" parent="eWbxP_99swZ47GVYCq64-2">
          <mxGeometry x="500" y="260" width="130" height="50" as="geometry" />
        </mxCell>
        <mxCell id="eWbxP_99swZ47GVYCq64-36" value="Compute&#xa;Engine" style="editableCssRules=.*;html=1;fontColor=#999999;shape=image;verticalLabelPosition=middle;verticalAlign=middle;labelPosition=right;align=left;spacingLeft=20;part=1;points=[];imageAspect=0;image=data:image/svg+xml,PHN2ZyB4bWxucz0iaHR0cDovL3d3dy53My5vcmcvMjAwMC9zdmciIHhtbG5zOnY9Imh0dHBzOi8vdmVjdGEuaW8vbmFubyIgd2lkdGg9IjIwIiBoZWlnaHQ9IjIwIiB2aWV3Qm94PSIwIDAgMjAgMjAiPiYjeGE7CTxzdHlsZSB0eXBlPSJ0ZXh0L2NzcyI+JiN4YTsJLnN0MHtmaWxsOiM0Mjg1ZjQ7fSYjeGE7CS5zdDF7ZmlsbDojNjY5ZGY2O30mI3hhOwkuc3Qye2ZpbGw6I2FlY2JmYTt9JiN4YTsJPC9zdHlsZT4mI3hhOwk8cGF0aCBjbGFzcz0ic3QyIiBkPSJNNyA3aDZ2Nkg3eiIvPiYjeGE7CTxwYXRoIGNsYXNzPSJzdDEiIGQ9Ik05IDBoMnY0SDl6TTUgMGgydjRINXptOCAwaDJ2NGgtMnoiLz4mI3hhOwk8cGF0aCBjbGFzcz0ic3QwIiBkPSJNOSAxNmgydjRIOXptLTQgMGgydjRINXptOCAwaDJ2NGgtMnptMy01VjloNHYyem0wIDR2LTJoNHYyem0wLThWNWg0djJ6Ii8+JiN4YTsJPHBhdGggY2xhc3M9InN0MSIgZD0iTTAgMTFWOWg0djJ6bTAgNHYtMmg0djJ6bTAtOFY1aDR2MnoiLz4mI3hhOwk8cGF0aCBjbGFzcz0ic3QyIiBkPSJNMyAzdjE0aDE0VjN6bTEyIDEySDVWNWgxMHoiLz4mI3hhOwk8cGF0aCBjbGFzcz0ic3QxIiBkPSJNMTAgMTBsLTMgM2g2eiIvPiYjeGE7CTxwYXRoIGNsYXNzPSJzdDAiIGQ9Ik0xMyA3bC0zIDMgMyAzeiIvPiYjeGE7PC9zdmc+;" vertex="1" parent="eWbxP_99swZ47GVYCq64-35">
          <mxGeometry width="30" height="30" relative="1" as="geometry">
            <mxPoint x="15" y="15" as="offset" />
          </mxGeometry>
        </mxCell>
        <mxCell id="eWbxP_99swZ47GVYCq64-37" value="" style="shape=image;verticalLabelPosition=bottom;labelBackgroundColor=default;verticalAlign=top;aspect=fixed;imageAspect=0;image=data:image/png,iVBORw0KGgoAAAANSUhEUgAAAcMAAACUCAYAAADvekIlAAAAAXNSR0IArs4c6QAAAARnQU1BAACxjwv8YQUAAAAJcEhZcwAAEnQAABJ0Ad5mH3gAAFzPSURBVHhe7X0HgFXVubUVEUHFFkssMeUl772897/kvZdERaUXgZlhmEIXBHvvFVCM3SjYS4yJMTEmGhsW1NhAOtML09ud3tvtd/1r7XPPzGUEBDSWd/eCb0655+zz7XK+tb/dzl6wsLCwsLCIc1gytLCwsLCIe1gytLCwsLCIe1gytLCwsLCIe1gytLCwsLCIe1gytLCwsLCIe1gytLCwsLCIe1gytLCwsLCIe1gytLCwsLCIe1gytLCwsLCIe1gytLCwsLCIe1gytLCwsLCIe1gytLCwsLCIe1gytLCwsLCIe1gytLCwsLCIe1gytLCwsLCIe1gytLCwsLCIe1gytLCwsLCIe1gytLCwsLCIe1gytLCwsLCIe1gytLCwsLCIe1gytLCwsLCIe1gytLCwsLCIe1gytLCwsLCIe1gytLCwsLCIe1gytLCwsLCIe1gytLCwsLCIe1gytLCwsLCIe1gytLCwsLCIe1gytLCwsLCIe1gytLCwsLCIe1gytLCwsLCIe1gytLCwsLCIe1gytLCwsLCIe1gytLCwsLCIe1gytLCwsLCIe1gytLCwsLCIe1gytLCwsLCIe1gytLCwsLCIe1gytLCwsLCIe1gytLCwsLCIe1gytLCwsLCIe1gytLCwsLCIe1gytLCwsLCIe1gytLCwsLCIe1gytLCwsLCIe1gytLCwsLCIe1gytLD4ChAOh/skEolEz1pYWHxTYMnQwuKfABFeLOm5JKiti4HXWFhYfH2wZGhh8RXAJUKXFGNJ0BKihcXXD0uGFhZfBsRnRkh6CMEX8SEQ8UcJEAjpj34Ph7gfQjgSQiTkRTgY0C0WFhZfMywZWlh8CVDjZyhMViPRRUJB+MJe9Ea8CAS7AX87Iv46RDrKEfRsQWfJOjTnf4Tm3JXorM3mfQEnEAsLi68NlgwtLL4EBOgNehGkx0da9PFELz3AjgZ0F7yN6peXoPiBVGy89jRknP8TZM35ATalnYxPZ38Pmx+9AGFvgxOIhYXF1wZLhhYWXwLU7BkOhhEJ0DPsaUbzxpdQeOcMZMz7PnJmHImqaUNQnDoEFal7oz5pX7RM2Q9VSQdh613pQLcnGoqFhcXXBUuGFhZfAiKBCCJ+H4L1eSh66gpkn30iqlIOhCdxH9QnH4iWqfujInkISlP3Q0XKviTHfVGSMhRb75wH0IO0g2gsLL5eWDK0sPgyEAwhWJOF7DsTUTBjOElwCGqSDkX19INQS+KrT9qHx0NQn3AgGhIGwZO0H0roKRbdNYtkWGfJ0MLia4Ylw28EZAgHSvxCvBDiNsh0CGtoSohHoSB/CCOoUZj8p788Y67T9UbMzRrKot/5mznPPxrJqcEt5oI9he53Rn5quEskQu3CQeojHahRTx0KH70ceamHoVLeH73B2sRDUJtAUpy2P8qnD0F5yv7cH4TK5P1Rlbo3ytP2R+FdM4Eu22doYfF1w5LhNwKy0jLirnwhq/3tB4krQlLToJSg6JAMFBYfRskQIZISicgMVglRglEx0xcc0jRkSHHIkOe+MBkqfK95hFdHIsZAAH6GHwj50JO/ChsX/Dtqpw6GZ/q+qCLhNSbuQ69wb+7vR2I8EE1Je6GV52oSh6KK5FiScijy75wLdFsytLD4umHJ8CuCjHKsbAsd08pGZefXfnMwUM9Y+UKIkhqpD36mjcgnJI/Q20IPrIZs1AL4Wx3xUXraeK4DEX8nSbGL9/t4l+MdGlXEpIZgFfiegjdHfEY1hR4SGQZDCEivYDvKnrkGpalHoj1hX3iS9kW1PMNp+6AqZS8S396onr4fSXJvlKUdjLwLf4Wtt6ehePlCFLxyH0m1OfqMbxa2l6+xYvHlwKbrNwOWDL8iDCzwrkR/5T6Nap9sS4hfN2L1iNXLPRcLnXNXWdlTmCoB0yAc8ZMOQ/S+SDzeeuT84WYU3TcD5femovS+FMp0lHGr4xKeL3hgDmo/+RMJkcRIMlUzqtGCaWo8wy8E3e82kyruQTNyNCRPtKMcObcloHT6QagjEVbQ66tMPoSEuB8qU/ZGbdIglE4bgpw5R6P86fMRqFmPcE8tObuBBN5ER1Z0//UjNl+3l4exvw/8zWLPYdP0mwFLhl8RBhb0bY/1InzzyHB7OgxcUiz2N0HHX5QM1ScX0v1hNZTK+/IBXWXYcsNYFKcebAaiVE87kGRzAGqmUXhcMe0QFNIz8zy/hF4iSYbeocIQsSo9vzQyZFDyWSOaKK+mWRI26jKw5oKfoSSFOqXsj7LkIfAkDoVnmohxH9QlHERdj0DWxWciVJ8Ff8hL3RgaddJ0DOPCfoMQm7fby8cvmr8WFt9EWDL8J2BbM0GDYshuWwJxSIXbvnOxRBh7rcz5jqAn/XOMEp/s/OvTwxGXDF39+3+Tnv3XaLt7urnXa2AMwxYlkmgCDNcrSuuuRv71E1GTeBA9rcGoSd6fso8hHA1KKadXlpc2HJ4/30IyrDPeFrXQnUY3Rx+Frn+xcJ752fPbQr/K11Scg9RNXqshMpFhxSdYN+9HqE7c3zSN1ibtj5aE/VCXvBfK0vZC1bSDkDvjENQ+dQUivfXwB3lPQGTtRS/DYq5Hn/LPgBvvgYjG26RNtLzF5G0oFPps/ka37rnPYlfisSvX7Dr69ds1+bqwPV0GisXXC0uGe4jYAuzu04YYw6ZmtKAMCY+DkSB6I9089hlvQgMvZEwDYb9ZozJEgxrUQIwwzSKvCYb5a5CGSANDzNJeukfk4IygNHskTT1Mg0gkewppL10VrokLdeYON/LGNDiEZBTyUQ0+hzqFqJMGsGj5MIlf+qsJk8QTCXbz/l6qxbjxmqCJp/r8+AyFLdGoUOmtQ9lWikk0xce4Rxo/yvjymT7e2cHnB/lMn0aS9laj4OqzUJlyqGl29Ezbj2S4N2opxgNLHoyCtINR/fw1JKkm+PgQszwa7xVpadSn0lZNrj18cIgnFCfT3MlzPurQa9LCyUOls/NP6cFzVDPAH30MI6w8CfcgQkLT0mvhknexefaxRifpom1tdL8meV96sQcgI/0kVL/+CANo43O7TJqFqUOQ8dezlSZ8GFOAz6R+SmemPMN3EoraUi9WEXheeaM+VKcixft2CP3uDEIy/ZwU45IyTA0xUg6FFJ+g8lfll9fwWWGmicppiPEMkbi1hioYX4S7eU0v04DlVNoo7Gg6Kx3BMq3yqEeYfKcoR7UvUdryQY7sIRTdWNGar27lyxB5dKt3yz3nEHv0OsU9+n71vbdGlMZOmH0wJ/gn+l7sDOZSZ/cz0DOUrk7acl/68PmhANPK6KJ3ql/HYFRfbWN1d/RUSdj58yz2DJYM9xDui+Tua6AHzSNfeL72NBjyGGR89fJFfDRFPc1mpZFQfT56Cz9G1+Y30Ln+ZbR+8md0rH4BnZ9QNr2CnqIPEGzIQaSrmoaznUJDRKPEN5hbn2NwaExkWFyD80XA14thKTwZOHlT8sj4Ax8gA6mJ5PC2I9JRjXBTLnzlq9GT9Ra61r6E1o+fo/5/RMenLzA+r6K34AOEPNS9vZrx7USYJG/IXYaVYUciTAfzQit4/ZOZ5svOfyYl9UcE6SfZ+DtJPiQN7iPA9OzIQem1Z6AiZZDxvGLJUPP4KkmGRanDUP+Ha4AeDw1JL4U6hNsNqYsMIzQ+ssMioIjxzkh/MvTKn156en6eC/I4QGIPdtOwS38ZIaqlrYgh2EmdvAhSIgFe7+Nx3svImXVklAw/K9X0XHPTj0Hj+4+R1BsQYtzCDN88y9/O8FVe+J9CLfgMpjl1CIVIQMp/ki50jnFSfyiCIlQRkwysEm4nEO/wIqfM+Ji7qmawwqKUVxkOMMG9fEZPK/OtAv7qLejJ/xBd615DO8tmm/J39fPo3vgSujJXIlS+HpHGQoRZHhBQPFipow4mLEN9CtnZmhIqz5lblTNlrURX7jF0q0tO3IpURBpBErqX+djU2oKSsjJs3LIFH63+xMjHa1Zj9aefYktWJorLStHc2orunh5zj0lDEQ4lonAHQGdc2SliLxwgClfPEOFJ157eHjQ0NqJgayE2bNpo9PtkzRp8vHo1jzehoLgI1bUedHZ3w8d3yCVEbftsTlQsvjxYMtxD9JOhs40YL04vFA2BPKdADyvSDQiUrEHLO4+h7JGFyF0yEVsu+hlyz/kX5M86HgUzj0Z22nDk0pDmzj4ahXOORdHZJ6LgvH9F4S3jUPLY+WhctQK+krWItNL4aLSkIRbnX4SGxpGoDrspMiYRek2GsFUzDSksEUQb7W4NDeMatH3wJKofvwTlN01Ewfn/jvxzfoDsuccjb85xKEg/zJGZR1H/Y5F79veRs+inKLr6DFTdNw+tr/4Gvtx/kEhrmR4iJi8NgioJMsbyTES9MqGOkTSvN/XwNlWj6J3fofrNB9D02go0vf4QWv5+I4rP/wHKkg+IIUNNXdgHdaapdH+Uqc/ultFo+dsdaHhtOWrfeBBl7zwBb3MZvW2NBJVH14VgTzlqPv49PG/dj9q370HTynvR+Ma9aHj9ATTyvnpK5ZtPoKtsM409qzj0gEJMm0B7JSrfe5rhPoR6V3hP81MLUDLz4G0IMFakW9GMw1D50Aw+417Uv/kQ6t5cAc/Kx1C74VU+gxUlpb+8PerXvHkV6l5/lOEvR+MrD6Lx9QfRsHIF6ldSt5W/QdXKB1D96V8R7G0ynmIsYvNXXgTplGnOPwGmLY1/IOKlR8+88Dci0lzAis2rqHthGSp+nYbSK09DzsIfIXvByciccwIKZ36H3vbhKJxxBApmHYNcnstd+BPkX/zfqLj1LNT9/kpWil5k5a0UYa+I0anwhFgZVO6qjMrL1DmHFHXG4efdQWycVGYd9g3D7/OjqakJ//jwA9z34AO47KorkZSagvFTJmP0xAkYMXokzhg7GqePGcXtGIyaNAFjp56FKdOn4fzLLsHiW5fir3/7GzIzs9Dd1UX9qa9EFR8Kn8JyyedKB6PJTiC9YkQkbbw/2oQACa26uhrvrFqFO+++GxdeegmmJk/DmMmTjE5njh+L042eozFqwnij/6TEBMw8ey5uuOVm/OXFF5GXn4dukqNpJVKGRp/x+YpZ7CosGe4W+GrQ+LgSJvFJzD4LZsDHlz3QhmBTJprffQJFt6Yhf+FPkT3zCBTSUFekDKYncwAaEvZDc8K+aKLUJ9JzSN4f5an7o1qDLabtjYakvVGXNIgexSEon34Ushf9BHnLEtDwxgMI1mcj5G0hodDgaKi/IUPp5bwVxgi6L3OMEXElFjpW06ePxsXHlytCbyTcmIeuj54yozOzzv035M84DmVJh1CvA81ISdPsp0njjEfV9P0o+/B4Hx7vgxotMzadXhrPl888AHnpw5C34F9QfGMiOl5+ACGSesjfjF7TREwS5HPlmDhkyDTVJIpwB1pz38c7C/4L2bOGoyJZJHMkSlOGoS7xINRPPZR6OGRYTV2c1V325TnqQr3KUg/A1rSDsTWVRjz1KHwy59/Ru/kt8kAXQ9dzmW6ejci6ajzyU4+nN3kESXQ4itIPptHnNnU4cmYcjg/m/5hk+Sg9piYaSHqOJHJ/+QZsPPfnKGHY1dSrdPowhnEE8+gQ6uPotD2Rvg1TDzLXl00/lGl0KEn9EFaEvoecu88HOmuYGfKS6U35qlH4yKXYPPNE5MxkRSP1UFQy7uUph5rnFrPylDn7OGTdlkoPbStJQSSzfTBH0asmYHkkrPSoeTfSXQdv/ruof24xCq8exUrMdxnuYaiaNhge5e30vVGVsg+fuR/zUfmsdGbeRkX7ksrUQcibfiB1OQbZl/0PSlecg671LyDSUo4APWw/yyT9WND/hZdlUdNS5NmauaJGu12HPDjXi9N71tPVi00bN+PGG2/G9JQ0jBxDMhkzxshpJL0dyamUU7Q/bixOGT2KJDQep48eg3GTzsK8Bedg+cMPITM7y3iYgRArDpSgKinRd2lnkF6OqOIUgp9p0NbRgbffW4WbFt+ChOTpOIPPko4jomL0iuoyUFdXRlBOJ6mPP2sSLiKB//Wlv6HG4zHpoWe4/bzC5+losXNYMtwtqNA54pJh35YeRLClGJ53liPz5jOQN/NwejBDUD9lEI21mvYo0yRRr8aIRkJqpZIhaEwYTKM5mMZnMCqmU7iVgdJgkTreV0HyyUmnIbz0v+F5YTFC1ZtoXzpIJv2k55Kg+/LGvsSxx+45xcQbYk0+qGbQYjS+8wiybxiPnLTvwJOkEZDSg6TH54v81BRZQ30apx6I1ikkx8RB1JmSeADqGZdaHSfS8PNcjfrOaFwbeFzPe0pTDkPm+T+n7ssQrNpIo99OBTSJXR4EdVaaqlkt3I32wnewet73UJYuj28/NPBZ1al7s3Kwt7OkGclPaaipC+qbq0/UcxwvsTZpH3OsCe/1lE3p34Vv/d9N06SXz+plfgVrN6LgqtNJTIeYOCndlS+1DLdpiqZC7IPNJBx5ZKD3pf5RNWX6q9Yik55TFa9rSdDz9iIRal4h8zSq0/ZFvx9oKg71jENzwt7Uby+S8CHIu3cOGaOS8Q6COcE89aBixXkky+GoZ6VCca1n5cj0RXK/js/cSsLPX3YWiSffeAo7g+kXlXfrq0Vv0SoS7QXYsvDfUTSdnmryQaasmYqN8ne6s61nPraq3Caq/CmfmUaUeuZzA39rpDQkH8j8VeVO8duH+TsImWd/F3l3zEDrx39meSph5aoD3az0kAZZ5kiBJMMwyWVbX/azcMun4JZbEYzX6zVNiRdcehnOHDuOJDEaZ5AIzxjryGmjRvWR4vbkNHpep9PzOoVbkZDIUYRzqo5FPONGY+SEcbiUHub7H32IXj7PPD9KdDuDq6fIs6u3B6+9tRJzF52DMydQL3p9p1IM8cU8ewS3vxo1koTXT+YSxeV0/R7VecR46ajrqD9lGr3fZ37/LBqaGk26DHyvLfYMlgx3B3yxZbg1aETNNKZPjfuaA9e5/kXkXj8KWaxpl6ccxFo0PT2SgQihNpHeHo2nDHY9j2vMJOy9+Js8wH2cZr4UGnoayxp6OGb9ShKkiEa18Qp6ZVqxRN5PLWvr+emHIfeqkWj/6I/R/rEeM9DB1J7VbsKXQ7qaznYaf/1Tk6ReZ3mR/Z34lN56eDNfQdmSJBSmH+8sG0Y9Kukd6NkilaYpJJepfDb1qaTxL6eu5dS/ikbQI2Moj4JSlbI/DSyFxr9+6mCzBqfISsRYTsNZmH44ifZoFF/yK9S/8xgiPSVUtYtCg00v0dGdxiRzFbbMPAEeeidlyfRaEr9DUiYp8Jn1DE9pJpKpMYbYJQymI0mjPukAGm6NOKUevH/1nOPhzXiVeaVmWjWVkoA9q+kV/QLF9G7KeY2H9zTwekPu1Lk6eRAyZh2PhpUPm/5SzSWM6NuE1euQfe5P6CkfiOYp0WdMJzGoQsC82ZYA+0XXSS95VIY8SL4it7LkoSi+cxY9w0qGH6QnxbwJNJEML0Jx8hHO9BFWiKqnDWFaH8xwnIpARepQ5C+djEhbsbmPuWryVjlsyiPLJrPWeGEhP3VvKEHdi7dh8/n/hiISsIfxVBmsIrHWJrEcMu3UWqEKmXSrNGVUHiDLKXVWHpvKG4myRh4kSVFppYpOFbcVPFdJUi2naL3VgtlHoug3sxEsed8QoloBlMfhsD52rLTcudFWH5vIxzXw8tDKKiuw+LalGDV+HE6jhzWCZHgaiVAyYtx4EgfJUQSp7ejty4jRIqZxJCKREu+jZ3jqOB4zzFMNQYkUST4kojN4fMkVV+DjT1bD71OaflbnWAISIfnoqRUWF5v7RFynkVxPHTsKv+L2FJLwqXzeKSI4Ebd0kUc7VrpTl1jhb2cwHiNGKZ7SdRQ9WgoJ8VTuG1IkSabPmYNV/3gfXr+aph2PVK8QlXJ0M5pZ7CosGe4OWNacfi4NaOBL3dtLb7AQNX9bgoz5P0ApPQ15Uy4BmOH/xhOMGheShbysShpHrUhSpWZF1qhreE89r9OAkCoSjYyP8bZknGmoREhqmqxRUyXPe1JIjomHInv2j1Dy7BUINWbS02pxBhLQkMjLUB+g3l8ZywA9Li+VNy90MGzmuZnRny2V1P1ObFjwL3z24SSwg4xxL6MX5nitJHV5p4b05JmJIEnuNMgNUUNfR93UrFsvgpfhlDfDexvMvSQAeUP6nftl1F8T0qvokWTP+h6yHz0fvtoMei2d1E2jU71MYx/acz7Eev7uYXiavK5PHSmcWuqiKRTG64w+3xE1l6pSIZJkWjONdb6KpLZ29vfg3bySz+ilsSBxqE+rfjMKrjiDYTEtdT/D11YeoYiiinHMm3Ek6t96iGTYxvSUXtSvfD22kAyLeF8TSVNemshUnr0qLv36DBTl3RDGXVtnAJAG/pSQDAvNVytqaLjUj8p8CzSi/DcLUJI+nPcdGI2r4kWyNoSritRQFCydQu9LzaTqjzMNrMxhko2aIuWEBVjh8TXBX/op8hansQJ1NJ8vj53ETC9PemmpOIkqNypfDQmKxxCeozcuomTFR3ndmKgKiNMkLWngcQuJsDFBFT5VCFTGGacEeq5Mc5XpvLTDsPHiX6Dr4+cR6apn2jvTZJQHKps7gzPCknEKME14/T8+/gjJM9JIXiQqEovrQYm03OZEeVrG2zK/ydNyRJ6ju38af3Ovc8W93xBg9HoR0qkiLW5HT5iIhx993IzwHgjXY5X4vH689tobmJqQhNNHOh5qn17jxuBXJDC3abbPgyXhus8fKKZ51MRl+79L5NGOnDQe9yx/AE2tzaYyrEqwS9KWDHcPlgx3GSIZNZc5npb6tvz165Cz4mwazhPMxGrTvyLjR6PjGECnJm1E/TA0HBXThqM0+RhsTf8u8uadiC0LTsR6EumGBT/BljnHoGDmMJTQ2FbKqIhMGE7rFDWzHUBjpmYqeRkywCLcochL/w7yfj0NgYrVCHg1ZJ+qUT9Na9C+83JIX5pLebJGOkmgm1H828uRMft4elBDaNwY9lQRlZrK6GnRO61NHGo8E8WrgiRXkjIY+SmHI2/myciZ8y/InncCcudS5pyIrFnHIXfmkShJO5gkdiD11z2MxzQSGcNoTtwXHVPoCTPsEhrLKhJIQdoxyF48Bb7id0jQjaxiaIRmJ9qyP8AnDF8VhgYZX5JpbfJehnAqUoYZg/5ZwnFExlq/K930/HWzT4ZvwxuIsNauPso9JsMgDXPZBmQt+H/02g4mAThEL++tzpDhjnWSqBJRlqpnDEIrvWytU7qVXlrO3XPpGVZFyZAVFn8TKpcvRHHaobxPTZGfQ4aqlNEo+0WE1NMYZnnZ3iZ0rf8jMi/7Hz7nMBI3ySrV8eAbElTRIokxr6tJfs1T5eVptZwDsJVep+KuvDX5O+8kltMfML9PRuZMls909WGSpEXoLJOq8Cl+8tjrVcljxa6MFR6RfhXDzmLZ9ry0FJHOYtYke41u3s+x0vJsZdh99Hj+8tLfMDFhCkmBHpE8LW77yEBbEorb9HiKvLoBBNPfBEpCpMjTMr9Fz+9IdJ2aKy+8+FLk5OQZgo6F2zSp9O7u6cbyRx7B6IkTt0tg0tMNb3LSNIydOAkj6ZFKh1hC3hVx4+Nu5clqkNCV112L+qZGliO971GJ6mqxa7BkuMtQAaO5UnMPa+OBmi3IuiPFfLhVnp2ZV6YFmjXogEZLHl0DRc2eZfRmNGJ06+X/jYbHL0bP+0/Dl/UG/CUfwle6Bt6ytegt/gg9Oa+i46PHUfnslci/aTzyZ52EmsRhNNaDzHfwyhi+M/BmH5TTsJWminD3R6kGVdw0Bd6iT6lbD50/Gkb1ZdLwiAdFiJo3Jq82GO5BiLpvvXc2smccTd1pGEk0ph+OxstD/dUX1qhBPjSYMpb5aTSKF58Gz8MXoPPDx9Gd9xp6yj9Gb1kGvKWZ8BVuQG/2+2j9x2/R/PyNyL9uLLLnnoRSM/iF3hw9YvVNNZFsm2iINfCmRkLCFLEUXDsBXQXvoTfSRp270ZX3IT646AxkLPwhchfQEJ/zExSc811TIagTsSitKaaP0PUGGZbp9yIhF837PvLm/xiZvPfji/8HvTkrabw64NMUBvnI9VtQeOWZ1GvnZNjw9sNO36YGf9Db9nq2YO0V40gQ/4b8BSejYP4JKFzwIxTMPZZ5s2MyFInJ8y88+xjkUKf8Bd9jnI7HhoX/iZzlVwD0nJz8YWb5mlG1YpFZaaeW5Ur9pAPJsGb6MIcM2+UZyiir+qPBR8zhAPd9rWhe/TtsupDEnTLUeHaNrFBUqEJGPRuNV7cvSY2VCxHX1OEoIeGV3jEJjX+9Hl2rn0NP3vvwMo995Z/CV7IB3oI16N74OlpefxhVD1yAzIt/icwZRzGtDmaZVAvG3gxP67AyrqxYNU0ZhGaSo9J4w4KTUM5yEWktoren8qla2o4hggmSfJ747dMYNXECScMhwBEuEQwQkaG7rybEEdGmxDFnTcKEhKmYlJRotmN5fIbIyvQ1KjySCe8VUZpBLPTg1FR6+vixGDtpIp75/e/R1soyGR1xHQvTP0jC7unpwaOPPkpCYngi2wFkbPSmmGeOHoO//PUl5OTm46777kfyzJk4Y/y4PgKV9JNcf/xiwxpIhobgR4/kvaNwwaUXo7axgUXCIWrpaLHrsGS4G9Dkc006jrSVoeie81A4/TiS3SB6cvvSeEX7zejRyVirya6ahidbw9KvH4XW936HUG2+WWzaG/Giy/hB9IRIXND8Nc1ZCwTotdGgBbsQbixA58fPoGRZAr2/42gUDyZpDaK35gwQkdejQRmdU0gQU2loU45E1rIUhGnozTxHjR4kE8orVB8Mn4AePa+zAOUPX4ii1GPo/YkMSN70cERWNclDGR96Yal70WgeiMLUw1F0zeloWvkQ/J4cBH2seYbbaRion/oplRbRuY+hkCaRdwE9DYg0laJrzZ9RdEcyCmYdS++QnkQijXvC4abpVR+3LU6jzFAfH8lt6lHIvTkFgcZMekbtCHfWwVuyGT56Yv6STdzmIpD/Jqov/wWKWbFQGhuSITFIRIZamq2c+jc+ugCBovdZyVgHPw25t3Q1wt1qpnNG/pJt9pAM6QV4u6lLJgJb11Kvf8Bf9g8+62ME3n4Ahek7nmcoL6lo5onofOM3CBR/wvtWk2RINMWb4K+uZPAaFaxpD6zLkwwrHjyH5YmVIN5Xw4rKzsjQ9AGLRI2O3Hrb0b35b9gkjzB1OL1fp2ldXpwqJeZrGmrSjVaw8ucMR/X98+HNeh/BDg8CwQ6mVTe96F7qpDCd/nEzCpTlNhxoRaS7CqGqNah7cSmyL/gl8+Qo4ylXpKh5fS+0kGgbEpx+xDKmsfpGN88/GZ5X72D5qGZ4Ox4BK8iIr3r/HxgzadI2hLA9r0tE4zYpjj3rLMw75xw8+PBDeOWN15GRk42tpSUoqShHTkE+1m/ciLffeRcPP/IYzr3gQuOhjRhFUhEhMgz17502ZiRmzJ1j5ie68xdFzgOJxfUKe3t7sfLNN3H51VcbfUeQ9FwdXXIUcbmE+Mprbxiy8vsDKK+swu9+/xx1XohR4yeY+7ZH+G44rsTGXwNqDBmKyKn7LctuRXtnpxlpappNLXYZlgx3A2bgTMCDypduo/E7kTVsZ4Sghwamecq+JCkZZqeJrowGO3MOPYYnLkawaguNSAdtFYmORtm8XBroEFHTVsgYQbMKiQqvX30QmurA64LtCKlP8sVlyJ37U4ZLw0Xilddp+uPodYnQNO1BXml2+nBUPXsDwj0tZgWWYFij4br58ulllr1sRcPK+0jQxxpCqVJ/F3XVoJiqZBrNhKGmGVbTE9R8WrTiAgTKPjWEoNVmAtI32G3i4TcGUk10MpaMFwnRJ49ZcVMt2kdj2lxIA/hrbF74I+gr7/Ke5clpOon25d2qL7WRhjo/9WgUPX45ybqS4XrhY1p45eFqlK6MfFcZCq8bifx0jQDtJ0N3pKVG4ZZMPxgNv7+aFY5a6hukPvS1gr1GJ7+aDjXR3jST7hkZKn/kdWtupojVz31N6I/kvc3r3RVoPitmQM7876F100vM3x6TZlqRyCztxoxxhu875UB9vxWmmfRgQ6LqR1Z/7Y7IUD3C0omRdJoX63P52ySSoNZG1TcUFS/1E6oVwUl3xbGY6bj5vH9D5zuPINRThV6mlfrFAgHloRcBlT8SoIy+iTu3fpZRVnucfNd0E5Yzf/67KLg7Hblp3zEeoQaKaZqNR/2QxlseAg1Okteecf5P0ZX1JsuHPPR+mCa9GKmu9iA5NZ0Gfjx+RYN/iiGAsfSsJNsSoI5Hjx2Piy69DKvXfIqOrk6HxMw7RsJi+kqcNJa3xGdQOru6sTkjCzcsXmJIVP2JIpQbFt8MT12t6a/UnEO9qwHljV6gARDZuGTZ2dGFtWvXY8nS2zBZ/YZRQjSExnDVjCudX3ldrRTUIUhd5MVTWuh9vv/Rx7jwssvpkU7qu+8U3ieJJb+BIg9YzaTynk8dJw96FJ574c/ws1I90Ju12DksGW4DtbIPbGnXMY0CzY6MQLDkQ3x63n+gatqhaJ56ACo1CIaGqm3KEJKJXnqNEN0PmbOOR/mfl9CLLGWB76QJ4ctl+vFo2GloNLDFGekZMUaQryofpRq+jA1rjnz5zGhQvmhaa7PlrQdRMOcE07yo5i55hWo2LNeoT57T3L6i1CHYfM5PEch7F70RjTCVwe01Bjckj9OzHtmX/RJb0w5BWRp1TXVGjKq/S1M8ahheLUk2V82nz1wFtJWbWrwztFxGUR30zlQI1e35PstORo2YCKK/eUYDeTRaFT316Pj4KWy64Mdmukj9VDUbDuFzB9Fj2Y/kq4FFezFO9KLn/RSdG19mmK1O7ZkVBunPgBhOCXJvOJ2eRpQkmOYy7O7ADk2R2Jp6KOqfu4GEQk8wSja6Vyvg+ERaNPia/O2Q4RlRMlTzMMmQaaDBJOoL00CgfHr0DW+uYFgdDMNZOceUAfnYTAvpJ8IwIySLViFr1neNdzqwP1PHGpSUseAkkuHfmWha2Ya1dvde6qb0NHmuMuBvQ+WKhShKOZQkqAqPyNDxDE14LF+ad7h1CcmwTZ4hSUzCSpaI1PP3e5A5m/nHdHH6f535mOrb1AhlzW2tSBuMjEv/B96Mt5gcPbyfcRHxsYwov50l1VQmmYcUl6QcMS+FyWMzbzHEst2wCSW/mYvS5CPROJUeJwlYo5HrWfFpYh5Xq7JCclQ/aM49cxDqKGa4jL/CMqSltOABH+9nWt921530eBwCFCmY0ZcUDWwx/WzjaPw1GIX7Y8ePx1NPPYVOekNu+ZMI+isSNBUOUz4d/U33gbZM7l6vjyS6FhddcimeefZZkmSXQ3IiQ8VRont5Q2z47m9m1Rodm3fE8fiKioqx4uGHSegpGHHmmSRG9XcyHqNG4qXXXjVlxyhn7pWOKuthdPt92JKbjWX33GWah0V0p4w6k0Q6jl6fPEzF3xF35KlJI6aDaSrmM7Q/ccoUeGo8jm4WuwxLhttAhWdgAdIxjbHMv78Vlc/cgJwZR/EFH4QWGvYGDU2nsaqXl0hCKafhK0o7AmXLzyWZlJI7fPRQaPzk+UVfpL6XNbqvl8ptinHPxR6bGnpXBWp/fw2J6jsooedWR8JtSnCMozwkjerTnMCt6Ueh6NFLEfR6+GwZN96rl9/bgtIXb+X9x1DHg2isWIunsdKISBGKmuSqpg9G3syjkHPnTKBJ/VE0z9vRbUfSDxE8vSYZVRGorw41r9+JjHnHG69OhlL9VXVML83BrEgTGR6AwuTvIu+BRbRQFXyRZaAdwjBGw1uG7JvOZBzVD+n0lUpnpYP0FxkWpA5H7XO3MJ8amWNqguZ9DEfrpDIHosaH5NNHhvIwt0+GBSLDlTFkyFjR3ClmjKvsNg2Y4qY0KnjHTMWQd6pyMZAM1aS9ZcHJJMPXSTj01OVhm2RSWCIeBsNASd+mmbjiIYcMRfrV9HxVYZEH70xvUN8fyXCxQ4Z6fjC6dmiwegO2XDeK9w4xU3iqeL2mnGiKhIhRX9KoZN6vm38iWj/+PdNZrRVOudyV/I0VQ2D850zmpzdW9THybxxH7/wIU+lR5cyTvJep7FSxkqW+6HpWHjNm/wjt615g3rCSxnBUwVJ6aN3XSCCC/JJ8TJqeQCNPT039aZpKEeMJacDIKWNHkihGYSSPn//Tnwx5SX95cwPheIeOh6drYuOpc+55zWFU06Ka04OsFJhRr+Y6Xe+IX90YPOeGYwpFVFTW3PNumC0tLXj11Vex8NxFxnuTvPzaa4b8YmF0VMnieZG2n8+u8njw2FNPYt7Cc0y/oioB2wwAiorblNonvG7k2HF44omnmLRSzmJXYclwG7ilOxY6Fhl6EW7Iomd1Jg3vEFSSSBoS90XrVA0+Ye2dBq9Shp2ey/rz/huRqvWm1q2mkB4Wdr5aJrQdwX1BXdHL5OybFjAaXr6IDQXYdMVEGpxhrHXrufIQNVSfhJDoDGJQk9yGi3+JYM1mVjlpxGVpFUBzETbfMAbl1F1z6TTis4FeggZWVE4nKSqsaYOxdtF/oLfoQ+NV6lbB1eXzEKs/NH2DtWTaat7P2DfmI+fWdGyadRLy5x+DgrlHoHDOMSicfSxyFhyD3Hk8N/uHWE2S6qlaa8hQi5ybeXS7S4aBJuYYqUURoN2R/y3/y4TzJZGhqMAshcYIhgre3jkZkog2nf09tG5+3XiGWjlIRk8eouIn0xhLhpUPL0JJ2uGoSmQcqctOyVCeuioM/ia0v/8oyeYY3qPyoLLheN4iJTPQiKSUrcrSU5cg3FHDMqVY7Rlo7o3xpt1nOEyZYCNa1jyDjfN+zOcMNc/Th43ltVdPUzP0AWibrHw6AqWPXMj8rKe3zrRk2VCFR7qoe2D5kyvoCTkDZkSE7kCRPpH3o749elnX33SjmdvnkqFpSYnq56KttRX1tXWo99TSW6pBXV0tqquruPUY0X5lZYUR7Xs81eZ8ZWU5amtr+sRDqSZBVVTx3noNeHLfTz7RlCvnyTqOJURtO+i1anrI9TffhLdXvWOacGNh7jGiODjx0DUi9xbq/8qrr+GSyy7H+LMmO/2KIr0YiSVF9Smq6Th9xiy0trRGn2CxK7BkuA1UoAe+TjqmUQ52o23j35A9719RQ4+wQsunmaYnx0hV0bNRc1Bp8jCUPX4JLUSzMegaHKO+lm3rgrsDPp/EomY/BDrgee7XrPkfibrpe5k+GX0eSARoJnLL6JHYNs89Cc1r/8KXrMcY2QgNtrdgFTYs/CG9P/U5avqB01+mJlINchARqJmv9MG5zgAJGmzVhvcUMux+vdQMwifvJ9QOX2UmOrPfRU/e2/DmvIne3HfQy+PuvPfQlfMufBnvo6PgY3i7PTQwIkN5Lazt7zIZHoa655aYtJe3Ia4SBxrDrRxQdL5Ez9Alw3Dhqs/1DEWG7Zte4/WsIKmpViFy62jHvwy0jwzpGRanHUZd1Bz8eWSodGIA3Y0offR8sxSd4qKJ+vpahrOqkfoKNcF+X2Se80N0bHyeaaPFBPY8f6W38WzVDEndteZpuCUb2bdMMp/Z0mhkZ2EJeqYkx4rpagVQi8BgZF13BkJN2ejlPU4Tvg9ehtPW3YN558/vI8PtiZobNVp0FLc5ubmGcFwoGWIhIvr1HXcgYepUTJ0yBVMokxOmYjKPJWdNdY61nTRlMreTeTwZUxJ1PMnsuzJx6lmYmDjVTPM45/zz4NWAt8+BIcooRHDqx+vuVf4P0FTHKuMx4rRqaMv3iITf2dmFNevW4qalS4wep4w+k2nhDP45bbQzItYlRs2VHDdhEtau2xB9gMWuwJLhNmAB/MwrpWORYRc8r/4G2TNPIBENovFVE9ZBZqvh5Kr5qu+wYMbhaPvoSRZimjZ5NRH1EclwOKHtPlRj1OeRRIbdCOavwpZZJ0cNIw0Oa/uGGJLorZLoNPowL/1oVL7wa+rcZHQIB9pR98FvkXX2STSkGnwjb1JzxBzPUstyKbzCGYeafrKwX6vC9PDRn//C7whqsFK05ZWaT1dR4KP4qY+aoDRIwywK3mP2QxqVGlDTZi/NrAasfAEy9G2PDBnGt4kM5eVqhK902ikZBo2HFm73IPfWBFbSNFH/QJQznZw+VU2fUF6zssMymnfdSDPiOBLu5L17nr8mERh/52uTTj+jvspS8czlKKTudQlDqKf6O/eil6rFFg40LRBlqYOwfv6P4NeIXzWV0hs0XQksH/klJZgybYohu4Ek6IoZOEOvUE2PXi/Lj8pGFNozBETRNshydvOSxSSHURjBe8zIy76+x5j+t5j+SDM1wzzL3XfEbZ7VAJW0ebPRQzLcnaqEiNn1GmNJ8vOgawMkUXdQUA/jXFhcZJZjm79oIc4kCbreoiFExkHzGc+kd/jkU0/v1rPiHZYMt4F5nZzdPuhYZNiJ+j/cTCN5JOpJKBr8ofUaNU2ghjVgeYil04diw9xjESp9z/TFaE3LEDQRnq/NHpZJ3dYtgxlgGHwBI615WLfoZ6gy62nuw9q2VgThlsZHAzVqp++NomlHoOSRK5xh7DLkJIfKv96NzLRjaZRoVJMOZM1do1CdZiyt9ykyWTf7WARz/oFgQDV90RkN3B5CZlKVAA0AkufgY0S4y3RkmgTl6cr4y0CQAjQKVU2pup7PlXHtJ0O3mbQ8SoaacrAzMlxKAmshuchrMYroKQPIMAMFV55OMlQYJK2vgAw377ZnOJwVHeqUrArOTsiQaRlmZSLYuBXZN4ymDrpuMCqnDUVLotZBdeYWatRz6fSDUXD3fIR7m5nCygzKnoJKS+de9DAtelnJYVg97ah94z6sn3MsyXgYSlNZ0eC7ob5tU/lSWUs+EJvTT4Rvw4tMvx4zyhdBjcwNYN2WzfRoxhnS2h4RGokOnLnrnrvNIBeXDPXX7OmYIhJQ39tNSxfjVHpRGmmpkZmnjh1P0ZJs2kZlnCOnkEQkZom2qPSf03akWQUnZc4seFmOlW+7CtkAo6uj7jZwdd++qHWFZY0vj1k4XO8TtyLIzq5OMwXlimuvxaiJEw0ZKo00vUNrt1593fUmHSx2DZYMt4GKnv7FQkc01IFO1D1zA2u9w2jw9jKGz+mnixpUGqnSlMFYO+f7CFd9ytt4D42NBnLIiH4RiJLMaDU1XXZWYMu5/4smGRYa78rkoTQ0JEEZcnPuALModu7yOYYMnUXEW1D+p2XIm3E0Db2uke70IGhknTVU9zersXw69wREikiGNEx61VmPdRTYE5DYzOhbhaEIkGDVbKpv6ZlpCTxlfpMXKC+OzGVe3L6XV1QpguQx4y6vI+fGM2nYnaXEtk+G9EieW8xbGxiySJb38lbRjUOGCt+HoCcbOVefYpqM5S2Z9GA4hmx2RIa61fxRvjq6i6y1Mk2k4D2S4YlGB01ZUTj9hEgiSj4AWXNPRtvmNxiWRscyDRiISof+ivhFTEZHfycqHl6AojSSPj1/ea47I0NNcdCcz0BdBjKvHInKJJVPVW6GmJVumqdqNKvTZFnG+4ruX8DoNDD9lbaq8OwZRKNqng2wfGuxP1PT6SUZfvCoIUMzXYciIpbeptJlytmByJpxHHyfPAtvmGSofA+G4Kd8/OnHGD2Knp+8tIEkGCOnjhqFx57+rSGJvuJCaFd55BKAyENfjDiDBGq8QzUpyhOknG6maTjLtLmjMrf3LFc0GV8eokaGzpk3d5vBOjEq7BhGuahEEavrzmCu05Yiz1J9pHq+3+dDV3c3XnntdSSlpjm6Rr1DDbZZeMEFuxS+hQNLhtvAocJti4+OaDhIhrX67M2MQ1GXvJeptWvulkOG8gb2oddyINbOPNF4hporZ7wHmoov4hkK8kBEIJr0HGkvwZZF/2umcdTTSFbTy3PIcC8aHRoceowl0w9FzorZJMMa2lia2EALal66D9lpxxgPQQZazWcy+iKVxoRB0CTpjDnHw5/zGp9FIhJPfZEXibeKAw3h0SiZ5czoldEHJBEwPvzd8BwvFAmIHJlS3Ncdei69R2OwdRHD6K7dNTJ8Xn2GsaNJ9YxvFxmWkwwLUw8yi7JrEMzOyDDM52s0abAhF/nXjTPlQc/VvFEtlK4yqgFW+lJGNb3FgrtnkbQ8TFI9l8/bQ4gMTZ8j01Nf3VffsBblrn93OTLTjmQaSgdnVSDpoxYM6VFJvbakHwvfuj8x/XpNfutDy5oTunbjGoymN9b3eaPtiGvol911NwmUuRATB7Nn8tw5J8/whiW3kABHmX7IU/q8w2hzq+YWRsVpGt25GDIcPRIzZ8/uI0OVCTPa23n6PwUuoWmrATYBxrvKU4PfPfcHpKTPwJmG1MeYL2C46SMP+rKrruq71+LzYclwG+ycDOtfexBZM4+ggdrbNKvpBdeL7gxUcIhIa3T2bPwDC223afaSJ2RGdH6BMikPK0RjoTAjlWuwftZPUMfav0axqnlWn03qJ8MDUJIyHNlRMjSr2/jb0PDuszTYJ5FMZFg1elRzwTSSVF8rOMCsT5k94yi0r36KnoYmLjMdaOD2FGZEHCNNzQ0VqWlQ8wa9DNQdUi9DJp7TKEJNZOdDdRB9gfeQDPs8QzUfKnD9/7aR4XwUpQ/bJTLUvWa+Y3spCpYmQp/9qk9SywUrSIma4iAS2p9eotJoCDKXTAJaCpg2Kpd87h5CuqtflqzAsIAuxSfQhKrnrzf9nW68tTCEuhS02LxWT6qcPgTrZ38Pvuw3qbqIVJUWVpFYLvK35mJCgjPpfGdyKg39gvPON95krLE3e1Ey1L5Lhqeqr2/CGPyS21+OH01C1PJt9PRIHM6KMW6/4Paf54i8SnmYo3HDTTd9rmdoiIt5424131GkaSb/f86LpXtc0b0qx1obVSNncwsKcPs9d2PclLNwxgSHBPVNxhGjFIeod0sdtdzc/ctXmDAsdg2WDLeBXiLnReqHjmRRe9C88WVsWvADeGSQE0WAGoHpGFStPekhKRXOOBzlL1zHN7HekBhNr1P4v0CZNDVvGV0am6b3H0b+jBNoJOUR7mvWmNyWDAejNPUwZC+nB9BdbWrdakbrznoPWxb+p1mCyyx6TQMlQ6nJ7jJYMpgF9HrLfncJybMWvZoy8AWUNkPEaaRF4vKOQ+EeRHpbEGmuAlpLSdSFTNJyBLvovWpyf0uROR/uoNfiI2HQSDpkKEKj7AEZOkRKQqYu3yYyLHtoPramDY02k34eGcrjZji+ZpQ8fhn0iSYNotKgLi3DpgFTagZXxa2Meb3+4v9ET8G7NK4dvE+++55BesuPl0uoZOhRX29nMQpvS4I+A6Z4K22dPGIZpWeqPCuePgwbLvof+Ku3OIRM71AtHlqkobWlGelnz3KIh0ZdXo5kW1JyvDiNmCwpLdvG2Guv/4g8TeK5+757MS09FUkzKDPTkMBtIkXnko2kITEtBROTpn7mOZ+R6ECcP/zxuc88dyDc5kwjrOB1+7xYt2kjtpYUG1LsA29WWLGiwTbbTs3owqp338flV1+D8ZMn4wx5z25zKAlQhBirpwh+9PgJZuk5i12HJcNtICLUv3440wtoNLS0WVMe1l36C1QkH0LyOIgvefQL73zhRYZmJRStArN4AtCs/hz1p4hUVIvc3iuzawjQUIT5UqG7DIUPTDdzBTUgQZPk3abaHZIha8citkhLKTKvHIWiNGfgTEOCY1w1mlTGSx6iplhkXnoKIp7N9OK6qHXMS7ub0Fg7DZJRf1BA3yz0VmLrM0uQe8MUFFw7AsWUwuvGYOs1E1B+9ShUXnU68q6dgA23zUd3aQ5D2DMyNPMMvayIyDOUpxn89pFhxSMLjGdYzXh9LhkGSCS8NxTqRcs7TyFjxnGG9JSfmgfrzEWlh8ZKW/n0vZE767to+ct9zI96phB12VNE00MVDvMll3ArvDlvoOi8n6M8Vevcqj/aSQNDhiybmoyfn3Y4Cu5MRaSrllHm/YYM/SQN7gfCWHL7rTskQYkhAJLBaSNHYeltywxZGHWoy8DGSp3TijKtbW1oa29He0eH+fq8tkY6O9DU1orqxnpccv3V231ev8gzHIkzud2UscWE7SL2mS5cItPE+7feeRsXXX4ZxkyagL++8rIpj30wZTK6H4VLojU1NWZRgQXnn897JxnSMx/+lTeofk7j1fY38fZNreA1kxOTUFVdEw3RYldgyXAb6GUa+ELJUKnwkox6GlD+yCXITT8CWspLnxcSEWktUn3o1nyJgS//mnknofa93/H6dr4QfNFZ85UBNFVohq6XVk13NKfcc3rKdJZ/eJ2eaRwainThVTIafr7IG/+I9YsYNp+pZlqNDFU/jPk+HgnODLYQGaZEybCHZEhD3iNjTt1rn74OeemHU18ZSRJJotOnVDVNS7vRe0jYD7lpx6Puxbto/+uNkXXSQ/ppZKx0dnSUATeGvE90kkpH46BBOKEA6czPGIQ60JXzd2xc9FOUmXmR8kpVidBzh5Lc90NF+r7Im3kk1tw4nh5iGcOJkqGMnSFDdwCNvA6l82fJ0Azp/6OmVjTw3m+TZ8g0dnU0o0nPcQbQMH41ZjGEAWSYSjJcMgVh4xn6mM6UoA++0o/NMmtljI/WqlXlTCONRYpaOF7N4xXJhyLv8rEIVKxl0rDCwzg4E72Vt9EcVlayuDtxdrLV2Yl6g+oA0Oei1DxLAtP6seGuIhT99nIUpB1rvmmoVgsRsCFD6qHvN+oTZptnnoDmlQ8zGXuc8MOsLIpMVd9kWB989BFG6ksVNOru6MhYMWQ4Xv2Ko81C2xo8Is9LxKOt0lViiFr7LKfuUmmmPCitzT5jyzj3+Hx49k/PY9RZ403z4vb6DnXOLKdGMjzvkovQQYJVevU9I7oVgWlfepSWleLJp5/GrDmzzUo5mpIxgve//Nqr5hojqgRRH/f7jbpfcwrz8vJwDz3a6SkpOH20ppkoHRwxg3/GKv7R/TFanUbhO6NeT+Gz9PvNi5fCr8U2LHYZlgx3A2G/D72Zb2Pdon9FIWvfMi4afCKDJ49FH60VIW5NGWJWgenJfpu2qoVGQ3Pq+LLyBZIBNP/4IhgjTVHfIs2teaH4VtDmOC+35ghq4rwGJuhzT1uuGUHvZyiNjEPAmtBsPmgbJUMZP08iyXD6cOSIDHvlGfaadTnNR18LP8GGRf9N/YbSOJHM5TEYgzsEjVMHo3nKfiidNhSfXvBzdGx8kbzRyOfr6wWaDkCDSx1ps8QvFJlxWTPHwOjlljEXtatPUJ6ss/BzDwJV65B90zgU06OppaHU8H/p3qgv+lOq6LGU8zh35omoe/MhejsdNFb0eBSi0kPSU0MyHEmDqtVMRAw7IMNtRpPS2ETJUNUO6fnNJEOFrbLAgP2tqHhwIUrSDuG98rC0SDfzmXrFkmGhyFCfcKI+IS2JZpYp8qDiD1eZJfk0qMp8P3O6mvOjhMj81ipJ+pJK3m8WINxYaMqFPOiIX8ZdFRyGJ3ISSYr4GL6Tboqz8ldnVX6Zt2Qwn7/XLBXY8ub92LTg+yhhBaeOz9XX8jXCWR+oNl8t0XqljE/WNSTiOk2W5zMVX71XIiyRE8t8T28PLr3qKhp6GnUtQxYlpO2JmgjHnTUZf/7LX6mHRlhSZ71XLHsK24j5Z9Q3x+rrE1lJ925vL5545rc4czxJZZzbf+iE7a7o4g62UZ+iVr75+8rX4WOeaxCLIb+o7gpT31+U13jr7cswdsL4vvmN7tQOEeIrb7xm9AgGqK+f5YBlVPHu7e7BqlWrcOXVV2EM460RsGZNUw3+4fN3JEoD8yFiVhx+yXjoq/1njBuP9Rs3Uz+WCYtdhiXD3YAWVw7561D6+NUkw+PMCjCq8crwVJklqIYao6rBAmp6zLryl/BmvYygN+pl8aUxVWB1vnOrmqmmmJNqjHENazCBvjLBs/rihFndn55Cd95KZF0/EaXJRzjGleQhMjAjWfnsHZNhjTFqmqJomixJbkXP3YxNJB19OLaBJCIiqKLeWjJLI0zV5JuXeghyLvoZOtc8S4+sioQaAG0lIZPiDKXvocZmJKDixXiIHGUsZeR5YKIZDHTBV/IOim4ZTU96GA05iYaVBaVXY6I8PH3OSc22+5IMD0HW0mmItBUz3kqrPSTDHXiG0s0x6t98Mqxcca7zkWTqpq/N74wMNQjFEJTsXsAPX/lqrLnqdBQzPfWxXQ2aUVpplaIy6ieP0UNiyp15FEoePBfh2izTl6spDion0kMVHz9zWJ65iSzDVlSVfKb/W0TGi1XZCfZWovn1X6Nk7knm01B19PL1xZbCGfuifcre5sPUJSkHmSUEs2efjLqV9zPNmkxZMukZhfHsSC4i2U/XbzBLj+mL8EZiCSDaV6Z99Z1p8IjW4rzuxpuRV1DIV6ufoCSxz1Cai8h8LJxbcrJx2bVXk+QYvlZyGd/fLCsCNKNOSS5aANt4qNxeft01aOvqNETq6itRk+trK1di4fnnmfVHTx11pglXn1TSKNa+L/Tzt1de02ht6sa0k0fo8Xjw/J//jJn0IDV/Us2wuk73mmXnjMTEf4Ccri3J0BA3dZa+tyxbZgYXhVQZtNhlWDLcZahZgzXCcCdCjZnIumo8qpMORhMNZxWNuVafqaehcoayq49GfXDDsOWcf0P1C0t4zyYaAQ+Nir4Xx7q1eVnpRzE8dzUQfRGBNIhe9aHQKMpQ1a98GFnn/5cx9NUpg9CcqO/F7cXn7MdnyLM7wBDijsjQ1MBpxVQD1STnYGMGMm9ONIuJy8g2JTpf2ZCHaL7ST8LSB3/Lkqn7/B+j5ve3IOQpQNDXRd27qGcr+aXbrBhiSCKgOWY0xxEN5CC16xp/G0LNW9H41nLkXvIzlNB466vqVawg6GPH9dSzPmEwGvhMNS+L4Dac/RP0FL1BrmFayP0UaX0Bz9D0GcoY8L98nC9Mhk4h4P3/BDLk/23IcPkiFDHNzMd9NXJ5Z56hWh0YVxE+A6CH14zaD59EBvNO689qcJXWn1UfXkkK9WNlpFGLyzO83JQjUXDTGLSt/z0C3RU0zvTyxIjqZ1WFRHHVZ69YVtWC4WUe+01LAcustwb+ovdQ+ZvzSKwnmw9Yq49QH19W87vm4bZP1seo90JZqvoqD6c3Op/FhwTO8hILEVasBJlvKx55lMQw1nhr7lQL11NziUDn9bvpR+N24pSpuPa667HyzbewdWuRWcJM5Kgw9TWJuoYGvPHuu7h28c0YNWkiCYeEJeJRE2h0yoXkVzznkqGORThnJSQiMzfHTHYXEYYYrt/nw9q1azFj5kzqQdIiETlf4pcXqS9JiGgVpohWeo7By6++au4vLNyK+3/zAKYmJtIDjDbPcmv6JkVq2kbJ2I3v9sSMiOVzzuA92p82Iw2tJGd5hXqOxa7DkuEugy+qFr5WTTzQiM7MV5G76JeGePSVczVFafHsMhKWDENtklYj0ei5A1GQ/h1kXPYz1Dx7MTo2vEBiLEagt52E10U724ZwTzONfQsi3XUINRWju+ADVP9lGQqvPhWlMw5Bg75OQcNdkrIvvbn9jJERGaoZrOrzyFBGjTVZfTtR5BLyt8CXtwqbrxyBPHofGmBRT2OpJi31OTpNsBoFOBiNCVq3dDgyL/0Fin97Bdo3/hmhugyg3YNgVzv8XhpGL8mvtw0RjQptyICPnnDdX5Yi99ozkD3rOyhKH4riVH149yA0TuXzEvXZKT1P/Uj0GugxbJr3r2h573HqWWvSV8Z4j8nQeIaNpCrlFcP5FpJhBclQX7qXZ/i5zaRmRKZ8QxKM8lmT8LsqUfrs9dg862RUML2aSH4NzGPpJw9RX1pRfBV+OctLDnUrWJyMltcegq/wQ0Sai2jo6+ENtdGodlBdiq+Z4VYgWP4pOj56DsUPnoPMRT9CUfLhzNthxvtT64LyV3lbN5UeP6WCaZw3awhylk2Av3o9PSKWmc8x0ppy093di1sWLzWe38Cmy20IIUoWfauv0JOUpyjPcnr6DMyeNx9z5i/AjNlzzUjMMyeMN56l6XeMDYdyKgnVeJ7cd7+er4Eq4yZOwusr3zTzGk0llvrLs/P29qK+oR4XXnKxIWORsrw0V5c+fV1vlr/ddtdduPLa60x/p0bEmntirt2exOo4UAyR6uO+lITkacjIymRlor8J12LXYclwN2DmCbHWKnIJ+5rQsu6v2HjhCJLfYTQsNII0LJqMb1Z5Sd0XFdGpF47hHmauy5t1HHIu/n/IvXkcSu6dg4qHLkT5Qxeh6P45yLt5LAou/g/kzDkGW9NpZEiqZmCLPE6Slr41qAEk+gqCDK3WnjRh85odNpOGtBQaXw56D2o28fElDtDgdme8hM1XjSCBHGqMpJoqNfzebVKT4dXEbX1+R2uxVtDY5c86GtkX/Rd1n4Cie9JR/chCVC2fj4r7ZyN3yQRsufg/kX/2iWbSv5pAK2VsWVHQgB2nz0rhq1mXJMZz+TMOwsaFP0bt3x8gmepr9PIuNaCCL/GX4Bl+e8nQ+bivQ4bOABqXDLXS0TZkKG9QajCtNHJZn0EK0WOJdJSi7NlbkDXn+6avTulvFnNnfooM1d+t1oB6nqudqnxmmDMOR86530PWFf+LoqWJqHhgPqqpSw3JueTOdGSzgpN33k9YwTmC5XA4y7fjDTaYCpUz31bxV9gqsxrIU5B2HLJvPgu+kk9YcdKnmlgStdbuTqA+UH0aqqm5BZdfdfXOyVDnRAhREtPgkVNHkZi0xJrm3kUHnEhO03w8ERB/M+ejK9D0C393w+O+yGr8hEn40x//zMoByyVJ0Ai9TA3C0XJw8hRLykpx3kUXkYjHmGXQRkSfI9HAllMl46LLu+nL+vzdDIjRsXle9DhG3PudMLaN7zZCElTT7LTUFKxes6Zfx6hY7DosGe4GNI7O6ftTMycNmq8VXVteR/Z1o5FHQyKjashQRlYkRkOjr3zX0aDJWPSvWEPDJqNpauoH0YDIqNCbpDGRYTeDYmSY+btGXOo+fZRVE+xl2OR5VnBbS0OkL597NFiBRs7Uykk0uTMOQ86D80kgdTS6IkINeaCh5L4ZHCHvK9AGb/4HyLp5MgrTjkFLwgFmDUktl6UvCzQmqmlNZKYRn+rjY3zojYqA1OSp7xFWkySrtGg597XOp+YsmsExirOJp+KoOO1H74QGnfGqZNwrk4aglAb904t+hoYPf0ePo5q60WNgmooQxH1UEr0kNBl4Y+27qlBw3RgTnkkbplUt46spIlpppYaGuWj6Uag3K9DUM8Zew31iMZouQ14iR33uKFSzCQVXnGIqFhrAo7maWplH8y01nUELTGfNOgoNbywHvJ1GF80ZNeFpcWstZEBdTR+wmqO0ePpsZ91XNUOKTOXBicjUXG4+7nv2SWjboo/7kgwDJORIj2kSZ9CMnujax30eeFtYOToH+WlD4NFas8wHffxYedNET0trjVYxT3JvnYBIW6EheNUdFIJES9DJszJN8J31qPv7Hdh0NiscicNYfpRPB7CypFWH9EFqpd8Q5s8Q5hsrUfTgS83i5YPRPFVfvWB68FkqgzXTeMzyrEqIvqRhVj2aciD10cCrfUxTrNJQummEsK7Jmns0Nt8zF8GaDOaJ17xAMtAqkTuFiZO6EcJoaWvDHffcjVFas1RNjiIqksWp8hjHktRIaCIMjarsH1npEMwITcEw5MJzhuh4rfE0oyQTPaffTZMr7z+DojBPHzUWE8+aipf+9gp8vUxLpqugJld3KzH9f9xW1dTS47sBZ44ZT5JVOCJceZ8kQUN+epajh9kXOXLrkrvz/KgYHaPbaPwcfaUr79OxyJ7bM3nvwkWLsCUjw4xEdfVy9bTYdVgy3A2ISEyTlOmnCaOHNcOQtw3BsjUoeWiR+dp5WcqhNC5qKhIxaMmz6AdWaSg0yd2s2chz6mPUx1fliYhsHIPjjO5UU6X67kQmqs1XJTsDXBwy1eAZGVuneVNhV9G4adSgnqU5hAUzhiL/wdmIdJfxRSUpGCqQbySDTiMu70aEHuyCtz4TJb+7Dplzf0iSHWYMupoxq9JkzPdieM7HgyUiXn3ZXwswl2kRZulniJ3kbwyh4ifjLz1JgvKUaVArFV+SgyoJFalDSdbHIu/2dHiz30aktwk+jXSVJ0evzfGQZA9lNHmOZCMjip5aZN04ic+mUZ6uSeUKj0aZ4Uoq+Nz8tENQ+8cb6c3VmvAMqZIodLsIkRlIYbxrNiLnml8Zz1SepvrV5NVVTjuE4vSdZs/8LupXPkQjLjJ08l5h6NNWCMucq1IRDS//TWQy70XItSQWrfsqkq03wopO0sHImPdjtGa8QZ1IBGRAZ3RudICKCU+r89C4+ttQvuJc47HrqyhOXy7LQuJQktjBphm+mGmQs2wSIq1FUoxB9IvIxh04oi9JBHx1aN38N2SyIpGffripuKgMljPtytJYbpiP8uQ0BUMVMbVkqGnTrFzD8+rfrZP3LR1YVuXZq2leZKgBV6WsUJQwT0WmqvBpxZzSVHr85/0HKl9cCnQUI8A0NMumifnVlKvKzc6ga6Nx0cAsTX/426uv4KykBIykB+iO+tTWbSbdHdmed6mmTPMpJDV3kmTSZs7Cps0Z8NEjDAaoh8phDGLT3En3CNrbO/DU089gzISJpvlT3qrp+5POUaJzn+cS4XZ1iYppWt3OOX3s95RRI1lBmIDbbr8ddXV1Jq00UtbNe4vdhyXD3QCLPf/KgMmQhdHFl7abEgjQ8HbR6Kx9GZnXn4WitMNZqxcBarkzNRPK8yN50GhL1D8nUjNeIA2MDIuawGR8RDoNiXuhmdumBOerA/KqRCRFaYOxlR5DZYqaClkDT9GITBreqTRGrLnrGbqnctrhKLl3kSEQvqZGc1dENqp1m62Mk48vUE8DWrNeRdayBBSmf4cGTc1masoUoUl/x+NT86kGvrROHoI2ijzROnqLDilTFC+K6X9UXI0hJTHyuqoUEsKMo7HhmtPQtGoFvZpqGpledPMl7qUu5rNNhgw1lpaEKOphxQN+6q1BHb4qZN40Hlr/VU1+qhho2L6zL6/uABSlDKdnqC/dyyOmB6aoi3sYhBmyYY5ZIajagPxrfkEyVAViENNMRCBjT2+bYTXTU9yadhwa3nqQl2tqjNJMKakqBfOexoZ+jgnXfEA5fyWy5hzHNFJlRk3Warp15n+qwqCFs/Pn/gTtm19lVFSZ4o1Ke02JYOVEXqc84i4+IRRohmf5eczP4Wikd6ZyIS+ulgS7NY2eW+rexlsvWnIW0FJoCG+gYY6VoD6bRR0D9Xmo+NONyDzvhwyDnhuJVl8+qWEZlNffQmlieorgtIybCL2RadvIMqlKUI1GMJuyS4Jknit+KhMllIoUtWIM4v7B2Dz/hyheMQ/e4jWs6DQzvgH4qIfSTqRvhMc7g/R2t0x507Sq6ToVNdVYducdGEuyOV3NjaNG9TWPinTcdUcHEkisxJLQwGtFsJqq8dgTT6Kzq9sMIhK5mFGuzKudIRJkHH3MR38QpWXluOzqq41ubh9k7HMkA/WIFbe/Uls1ow5cT3XEyFFYdN4F+PCjjx3dVGmgaN9NO4vdhyXD3YBsqV4J81khLT/Ff/prRC+NrwfhtkI0vLcCBUsnI2v2yShKPZLGa5jpk1Htvp7EWEujYwiQ3pMmvKvpU56gjKgm0WtZNy24XMX7ymhgSqcNw8b5J2LjvUnoeOvX8CxJQHHSUeYrGaWpItPBfIZq6fI6tRLLCci/9wKgWytQbFujjYX5qkZYIwhJPH4a9c4aNHz4WxTelYac2T82upem0HCqOZFGXVMx1NQpD7CMnmgZjbK+U2f63USMWiRa/UhJQ+lp7U/dBpl+vMxZ30fhTVPR9OajiLQU86XtookzvhX/igjdVNQZh/+MEeKRMejUMewtQM5N45hehzD8IdwOJTHqOUw/klDZ9KEoSDsKNX+8lQE0k2AYH7GVyJBPExma5kR6csGqTci/8nRspW5ViVpN6ACUpNGYp6j5V6Q/GDkzT0LtOw+SnEisNOAhETJdTX1iSuHIz47oA6/0WoIF72LD2SehlJWVMg0W0gowjHuFaT7WWrEHYcvcH6Fjw4u8p53h8D7Gj1GmkWfMVRmgeDXox+dB9fJz6f0dxbxk3jN/pVMV078sVc3qLDNJw1GwJJGeYQFjJb93RyCVBLtNM6w8l7CvHcHyD1H33DUovHQEstO/i7x0epwp+oKJvD6nElPHSpUqOZWJ+voF09j0U2uEqOOlyuv3sAw7I48PRmHyUcg4/2cofPxi9OS9C7BiyBqWeU9EZhJnFirzWAS3m/baWRDACUcElV9YgLvuvQcTtD6nPC9NP9Cao2M1HUEjOnfgLbrEFCUpkYvxMkePQVJqKp546inU1Hjg5/ugNUR3C4qU4hWNm6ZwrM/YjFtuvw2TEqeakbEiMonbPHuK5hLGNJfG6ta/ry11pIyeNB6LLrwAb7+7Cl6VO+rpPs/ii8OS4W5Ar6R5KVX7kkVUcw8NpfrlTB+iauBhL/w09qGuBnhzPoTnj0uQt2Qichb9KzLTj6HBPozG5yAaGE1GVv8SRfs0NBXTRW5DkcdrMuZ8F5kX/wcKl05Aw1+XwVv0EY1ZHSI9HhT/5X5sWTwNubeMQfZSym0TkLlkNDIWn4ns2ydj9W0pyHzxfkS8Huoowxt9UaPQrkQkoRll6pnTIBvNG4uQ0CMdFeguWYWKV5Yi844kZF3wc3olJ5CgDycRDSPx0oCmHUQCUvOsmt1EAEPNupg5KYcja+axyD7v35G9ZDK9kcXoynmLnmAJw24jn5D6mGymqYzEYvSLGk2ZH+nkDHyR9yWy5i8hemOBGmx+4jpkLk6kTETmbVOw+bbJyLh1ghP/ZVOw/tZkVLzzB17fbe41n3BSjZ3UpfGWyjZ5Gf6WcmQ+dBm2MJ0ybibxL07AltunYhO3m2+dSknEmttmoW7jK+StVoRpdNR0qwDkUTMobqm7vhbhD6CnKhuf3j6beZHIOE8xA0byFk9BLiX7JlaKliRh7V3z0ZzzEfOEHkfQ+VqDIWrGU3P8zIomPBEOtqPy1YexbmkKtixNo44J2MQ8Vd9u7tIko2vm4lRkPHsbQt2aqrMzMlT+dvNZfviVnkxgX4Bl1EuCb9iC5o+eRNmj5yL/6pEomPdjVg6+gxJWEIpJgMpjkaDyVv3CVSRikebW9EORlTYcOQtOQPYlP0fZfYvo6f8BgeochHoamR7djIOIT/1XJqONHqrsqNKj/FX27g5ivR15QOob8/q8aGppxturVuHGW25GcmoKRmp6gQhOJBLduvsSfc1BTZWaqD5y/HjMmns27rz7Hnyyeg1aWlpZr+HbwLD3ZCTmQI9M8yVFWF6GV1ldjZf+/gquuPJq6pmG0ePUr+iQsBbUNn2Y0k/9l+4UDXq90vespCR6mVfiqWd+i+zcHHT3suxQPzPpn2lhPcEvD5YMdxkqdDI8NLLcjb7jxjDqWMbSjDSlpY9ogARr/yKaYLATkS4PAjUb0ZW7Ep63HyZB3IzKJy9BxYMLUHLnTGy9azaKl5+PsseugOeFO9D24XPoKfgAwaZ8kl81DQA9nSBr+EGGr4W3fU0I91bT82tkLbyV17QAnQ1AB2vkXfUIdzch5KeXqpdFL7Uhbr3cjtJ9/xgJY680GEQr3YjYeex8TaKHHlYnw2tEoCEfnXlv0ng+haoXFqP8icup+7kouWMG9Z+FSnoylU9eiaq//BoN7z+FrqzXEPBspk5VTAtWDEiymvckD0uLMxtPyzzf0UtpSV4w5wxBmsEpziLnps/QT89J53qaqA+93W7GtafBLDGHbsWZpM/KB7rbSLh8HtPey7DUEikPTIbYDNrgs8x8S1ZYyGC8v5LpyLTrqee9CoPpqf3eWu7XUhWthCPGIpFQSWoS1VupRxIP9ZgmwECA6aQm6V7ppPupE48VhtGTOkY0mElfR/fxeoappmBjb5lH8ohNWhjdGLbyU2EwH9FdTwJl3Lq0T/2oW5gVomCglbdKB4axE6gRQw8ynw7mgdYADUk0NzRI4mIeR9qr4Ctfg9aNL6D69ftQ/sx1qH7oYpTcnY6iX09DKbfVD5+Hyt9dj+pXHkDrur/CV/ap8fLD/hb0RnpZ51Bl0M9yx7xleslzNqo5RY778vRVzqjQbrNhv5jmaqUZ4+SSlspXe1sbiouL8Sa9pqefew73rliOxb++HVffdCOuW3wLbrv7bqx4/DE8/+KLWL12Hcorq8z0Dd2rFoQw0ySsZmuFzXzQM3YHSuHYWCkMd2K92ecz1P/YTNLNyyvAyjffxmOPP4n77n8AS25bhutuuhk3LVmCO++5F088/Vu8+sZKZGTnoL6xqW9gjBmBrPgq7nxR1apgyfDLgyXDLxHGSBpxCqnTJBQ91vB8NfdpHcdgtzGkfcLjSIDn+BtCvXw5JTTY9Jq0dqNq2P1hu+E7zzDPkbGTRI93HbpeYcu4yLCoz8ENW8ZABCLP0mf00nqhZmqA9JS+JDpHtN+vv7neWGFHF/11dXPD3xn6rx0orm7bno8+wdz7eTD36Nq+sETIsWEMFAf9e/2I1WXbez4rJo/MtTzSlmddOPdrJ3q1uc69XmllbnK2lNjn9t27AzjXxuav9h0xA6lEUCJ2U9aYv6Y8uvnbHiNaTIGkH9Dv6o/V9Q6JO2V8W/mqMPC5O/tnyEQVxOi1/XniyD8Tsc+Jfd72zg8Ui68Glgy/RGyvIPeJDBG9G4ckHB+jT0RI/N38Zkio/5yRAcZvoHyxl9oxlq7EGk2jixFXD0f6junl9UnUm3PioOu21Wl3dIy9bnsyEDv7bSBir5UM1GtnsjNs7/pYcbG9376o7Bz9+duXrwPy3JW+/FY+mrx0SNJ461GP3Tmv6/rTTYjVxz33VWDgc3dFYvP8y0Js+NsLd+DvrnfrysDfdU5wtxb/fFgy/JowsPDHnvtqoee5EvVCKH1kpiYt6STRflTMbzF3SlzE7n/T8dWn91eN2BzanvQjtvw5+yoDrkTPx8q3LO3c+H0T9N4VHb5t6ftthyVDiz2GMYg7EItvH3Y9Dz//CguLbxssGX5FiDUyuyvfVMTWtAeKxbcDTl4xz8xfR5yGVP3mnuSfvjzVL24LgoXF/x1YMvzGoM/ybEe+TmxPn6hs51SfWHxLsG3G9f+LIvbnvh3bj2Xxfw+WDC0sLCws4h6WDC0sLCws4h6WDC0sLCws4h6WDC0sLCws4h6WDC0sLCws4h6WDC0sLCws4h6WDC0sLCws4h6WDC0sLCws4h6WDC0sLCws4h6WDC0sLCws4h6WDC0sLCws4h6WDC0sLCws4h6WDC0sLCws4h6WDC0sLCws4h6WDC0sLCws4h6WDC0sLCws4h6WDC0sLCws4h6WDC0sLCws4h6WDC0sLCws4h6WDC0sLCws4h6WDC0sLCws4h6WDC0sLCws4h6WDC0sLCws4h6WDC0sLCws4h6WDC0sLCws4h6WDC0sLCws4h6WDC0sLCws4h6WDC0sLCws4h6WDC0sLCws4h6WDC0sLCws4h6WDC0sLCws4h6WDC0sLCws4h6WDC0sLCws4h6WDC0sLCws4h6WDC0sLCws4h6WDC0sLCws4h6WDC0sLCws4h6WDC0sLCws4h6WDC0sLCws4h6WDC0sLCws4h6WDC0sLCws4h6WDC0sLCws4h6WDC0sLCws4h6WDC0sLCws4h6WDC0sLCws4h6WDC0sLCws4hzA/wffwYkhl5rrfwAAAABJRU5ErkJggg==;" vertex="1" parent="eWbxP_99swZ47GVYCq64-2">
          <mxGeometry x="288.12" y="265" width="121.88" height="40" as="geometry" />
        </mxCell>
        <mxCell id="eWbxP_99swZ47GVYCq64-38" value="" style="endArrow=classic;html=1;rounded=0;exitX=1;exitY=0.5;exitDx=0;exitDy=0;" edge="1" parent="eWbxP_99swZ47GVYCq64-2" source="eWbxP_99swZ47GVYCq64-33">
          <mxGeometry width="50" height="50" relative="1" as="geometry">
            <mxPoint x="220" y="284" as="sourcePoint" />
            <mxPoint x="290" y="284" as="targetPoint" />
          </mxGeometry>
        </mxCell>
        <mxCell id="eWbxP_99swZ47GVYCq64-40" value="" style="endArrow=classic;html=1;rounded=0;entryX=0;entryY=0.5;entryDx=0;entryDy=0;exitX=1;exitY=0.5;exitDx=0;exitDy=0;dashed=1" edge="1" parent="eWbxP_99swZ47GVYCq64-2" source="eWbxP_99swZ47GVYCq64-37" target="eWbxP_99swZ47GVYCq64-35">
          <mxGeometry width="50" height="50" relative="1" as="geometry">
            <mxPoint x="410" y="290" as="sourcePoint" />
            <mxPoint x="460" y="240" as="targetPoint" />
          </mxGeometry>
        </mxCell>
        <mxCell id="eWbxP_99swZ47GVYCq64-43" value="on-demand" style="text;whiteSpace=wrap;" vertex="1" parent="eWbxP_99swZ47GVYCq64-2">
          <mxGeometry x="505" y="235" width="120" height="30" as="geometry" />
        </mxCell>
        <mxCell id="eWbxP_99swZ47GVYCq64-44" value="Forever incremental replication" style="text;html=1;align=center;verticalAlign=middle;whiteSpace=wrap;rounded=0;" vertex="1" parent="eWbxP_99swZ47GVYCq64-2">
          <mxGeometry x="308" y="220" width="75" height="30" as="geometry" />
        </mxCell>
        <mxCell id="eWbxP_99swZ47GVYCq64-47" value="" style="endArrow=classic;html=1;rounded=0;exitX=1;exitY=0.5;exitDx=0;exitDy=0;entryX=0.5;entryY=0;entryDx=0;entryDy=0;" edge="1" parent="eWbxP_99swZ47GVYCq64-2" source="eWbxP_99swZ47GVYCq64-25" target="eWbxP_99swZ47GVYCq64-31">
          <mxGeometry width="50" height="50" relative="1" as="geometry">
            <mxPoint x="520" y="200" as="sourcePoint" />
            <mxPoint x="570" y="150" as="targetPoint" />
            <Array as="points">
              <mxPoint x="565" y="40" />
            </Array>
          </mxGeometry>
        </mxCell>
        <mxCell id="eWbxP_99swZ47GVYCq64-48" value="" style="outlineConnect=0;dashed=0;verticalLabelPosition=bottom;verticalAlign=top;align=center;html=1;shape=mxgraph.aws3.internet_3;fillColor=#D2D3D3;gradientColor=none;" vertex="1" parent="1">
          <mxGeometry x="403" y="-20" width="64" height="44" as="geometry" />
        </mxCell>
        <mxCell id="eWbxP_99swZ47GVYCq64-49" value="" style="endArrow=classic;html=1;rounded=0;exitX=0.5;exitY=1;exitDx=0;exitDy=0;exitPerimeter=0;" edge="1" parent="1" source="eWbxP_99swZ47GVYCq64-48" target="eWbxP_99swZ47GVYCq64-25">
          <mxGeometry width="50" height="50" relative="1" as="geometry">
            <mxPoint x="420" y="30" as="sourcePoint" />
            <mxPoint x="470" y="-20" as="targetPoint" />
          </mxGeometry>
        </mxCell>
        <mxCell id="eWbxP_99swZ47GVYCq64-50" value="Internet" style="text;html=1;align=center;verticalAlign=middle;whiteSpace=wrap;rounded=0;" vertex="1" parent="1">
          <mxGeometry x="460" y="-6" width="75" height="30" as="geometry" />
        </mxCell>
      </root>
    </mxGraphModel>
  </diagram>
</mxfile>
